<?xml version="1.0" encoding="UTF-8"?>
<svg version="1.1" xmlns="http://www.w3.org/2000/svg" width="1024" height="1024">
<path d="M0 0 C0 -0.99 0 -1.98 0 -3 C4.62 -3 9.24 -3 14 -3 C14.33 -0.69 14.66 1.62 15 4 C15.64735107 4.22026855 16.29470215 4.44053711 16.96166992 4.66748047 C38.32970492 11.99678619 58.15453384 20.47189661 77 33 C74.76877236 35.4517766 72.58335602 36.90866237 69.640625 38.41796875 C68.77896729 38.86430664 67.91730957 39.31064453 67.02954102 39.77050781 C65.65366821 40.47191895 65.65366821 40.47191895 64.25 41.1875 C62.34712832 42.16433686 60.44478782 43.14220913 58.54296875 44.12109375 C57.60372559 44.60433105 56.66448242 45.08756836 55.69677734 45.58544922 C53.26684636 46.86003007 50.87295026 48.17827796 48.48828125 49.53515625 C47.4832959 50.10036987 47.4832959 50.10036987 46.45800781 50.67700195 C44.67579407 51.68586715 42.90203718 52.70963039 41.12890625 53.734375 C35.3883315 56.05640524 30.92245523 53.69411363 25.5324707 51.42285156 C24.71738037 51.07706055 23.90229004 50.73126953 23.0625 50.375 C-25.26098073 30.6219449 -78.38923126 28.97467906 -127 49 C-131.8003848 51.10761816 -136.45375192 53.46151437 -141.06445312 55.95410156 C-143.02890383 57.01561857 -145.00609129 58.05047486 -146.984375 59.0859375 C-160.18789584 66.12588916 -172.01910063 74.92065217 -182.96484375 85.1171875 C-184.65909563 86.68461438 -186.37699061 88.13489207 -188.1875 89.5625 C-191.86751824 92.75184914 -194.89145682 96.25930905 -198 100 C-198.42023438 100.49193848 -198.84046875 100.98387695 -199.2734375 101.49072266 C-212.45871465 116.96200654 -223.15780011 134.23995889 -231 153 C-231.27392578 153.65242676 -231.54785156 154.30485352 -231.83007812 154.97705078 C-236.2509107 165.6909119 -239.47940903 176.69407056 -242 188 C-242.16661133 188.74072754 -242.33322266 189.48145508 -242.50488281 190.24462891 C-247.47732412 213.56774647 -246.57835374 239.71076984 -242 263 C-241.74167516 264.47517079 -241.48385688 265.95043038 -241.2265625 267.42578125 C-237.72903986 286.15001851 -230.24273131 304.3948638 -221 321 C-220.4745459 321.94794434 -220.4745459 321.94794434 -219.93847656 322.91503906 C-212.49211647 336.18200407 -203.49314316 347.9724838 -193 359 C-192.48953125 359.5377002 -191.9790625 360.07540039 -191.453125 360.62939453 C-159.0704497 394.5158214 -111.86008847 417.81174613 -64.61550903 419.28964233 C-60.78498407 419.36906862 -56.95624521 419.38385837 -53.125 419.375 C-51.91393585 419.37518127 -51.91393585 419.37518127 -50.67840576 419.37536621 C-36.80199846 419.3459228 -23.55199726 418.13079699 -10 415 C-9.29375488 414.84515137 -8.58750977 414.69030273 -7.85986328 414.53076172 C8.93472899 410.7926506 24.90515238 404.14987455 40 396 C40.60150879 395.67918457 41.20301758 395.35836914 41.82275391 395.02783203 C64.00317795 383.11802703 83.48562174 366.8198038 99 347 C99.6504126 346.17218018 99.6504126 346.17218018 100.31396484 345.32763672 C107.99997932 335.46304042 114.27296125 325.10736768 120 314 C120.4947583 313.04939697 120.4947583 313.04939697 120.99951172 312.07958984 C134.67928458 285.45659226 140.65714803 255.99521684 140.4375 226.25 C140.43144241 224.8716951 140.43144241 224.8716951 140.42526245 223.46554565 C140.19602946 186.19355474 129.11553327 152.3861447 108.796875 121.171875 C108.3335376 120.45104736 107.8702002 119.73021973 107.39282227 118.98754883 C106.08020288 117.00163732 106.08020288 117.00163732 104.52709961 115.48706055 C100.30388572 110.95832179 100.55623586 106.06363132 100.72123718 100.18833923 C100.81700523 97.89517521 100.93860504 95.60430258 101.0625 93.3125 C101.12916879 91.73598997 101.19418573 90.15940924 101.25756836 88.58276367 C101.74120677 77.34845956 102.572569 66.15613551 104 55 C111.3058085 60.21712881 117.12658098 66.2567546 123 73 C124.23943359 74.40958984 124.23943359 74.40958984 125.50390625 75.84765625 C145.06288085 98.67169242 161.11075191 126.20656596 170 155 C170.20431641 155.65967773 170.40863281 156.31935547 170.61914062 156.99902344 C175.9562933 174.4858575 180.14040618 192.85201954 180.16796875 211.1953125 C180.17220352 212.05711624 180.17643829 212.91891998 180.18080139 213.80683899 C180.19063673 216.5796096 180.19073193 219.35221513 180.1875 222.125 C180.18689575 223.07029572 180.1862915 224.01559143 180.18566895 224.98953247 C180.14177322 250.19611732 178.10449334 273.98828302 170 298 C171.65 298 173.3 298 175 298 C175 305.59 175 313.18 175 321 C172.56625 320.773125 170.1325 320.54625 167.625 320.3125 C164.45168763 320.2993274 161.88694509 320.63810133 159 322 C154.65996933 326.62927918 152.44916596 332.90467281 150.02001953 338.67871094 C143.01463925 354.62106511 129.73547795 368.95552927 118.109375 381.6640625 C116.22144741 383.75476749 114.42369268 385.89550359 112.625 388.0625 C108.28850353 393.02416644 103.1632414 396.93798633 98 401 C96.94767419 401.8627027 95.89692909 402.72733665 94.84765625 403.59375 C85.44677501 411.27879632 75.42183485 417.78597813 65 424 C64.3704541 424.37753418 63.7409082 424.75506836 63.09228516 425.14404297 C51.08018144 432.2380149 38.00958107 437.07314864 25 442 C24.25685547 442.28536621 23.51371094 442.57073242 22.74804688 442.86474609 C12.54836207 446.73684866 2.12486838 448.68424325 -8.58105469 450.54443359 C-10.85281822 450.97228086 -13.07649188 451.49723735 -15.3203125 452.05078125 C-27.4036439 454.75421966 -40.17783189 454.24154632 -52.5 454.25 C-53.38839569 454.25067474 -54.27679138 454.25134949 -55.19210815 454.25204468 C-68.3734943 454.23616188 -81.06360955 453.70773531 -94 451 C-95.46687256 450.71068604 -95.46687256 450.71068604 -96.96337891 450.41552734 C-116.49812891 446.55460559 -116.49812891 446.55460559 -124 443 C-124 440.36 -124 437.72 -124 435 C-127.3 435 -130.6 435 -134 435 C-134 436.32 -134 437.64 -134 439 C-140.40129544 437.83749837 -145.96958298 435.96677385 -151.8125 433.125 C-152.62436768 432.73352783 -153.43623535 432.34205566 -154.27270508 431.9387207 C-169.92201751 424.22879112 -184.39043194 414.88987762 -198 404 C-198.55703613 403.55865723 -199.11407227 403.11731445 -199.68798828 402.66259766 C-213.10820064 391.95459613 -225.63094024 379.69247634 -236 366 C-236.42055664 365.45585449 -236.84111328 364.91170898 -237.27441406 364.35107422 C-274.68037514 315.85240362 -290.29890233 254.37433193 -282.75 193.75 C-280.96639855 181.01292369 -278.09725699 168.78134825 -273.8046875 156.65234375 C-272.81491901 153.38995151 -272.530771 150.27068483 -272.26953125 146.88671875 C-271.87437871 144.12065097 -270.56186477 142.28272543 -269 140 C-267.92661294 137.69294636 -266.96921451 135.35380666 -266 133 C-267.98 133 -269.96 133 -272 133 C-272 125.41 -272 117.82 -272 110 C-265.73 110 -259.46 110 -253 110 C-252.34 108.35 -251.68 106.7 -251 105 C-249.56515113 102.61888093 -248.10839884 100.30616718 -246.5625 98 C-245.90640747 97.01858032 -245.90640747 97.01858032 -245.23706055 96.01733398 C-240.63000139 89.2581912 -235.41020716 83.12207652 -230 77 C-229.37351562 76.27425781 -228.74703125 75.54851562 -228.1015625 74.80078125 C-226.41759857 72.85196853 -224.70995474 70.92602745 -223 69 C-222.25363281 68.13761719 -221.50726563 67.27523437 -220.73828125 66.38671875 C-214.969929 59.83959367 -208.87273551 54.35455188 -202 49 C-200.9511359 48.14174805 -199.90432607 47.28098067 -198.859375 46.41796875 C-170.00205632 22.80045302 -135.36764127 6.82365744 -99 -1 C-98.02466309 -1.21027832 -97.04932617 -1.42055664 -96.04443359 -1.63720703 C-64.50158181 -8.11819317 -31.43032169 -6.10692779 0 0 Z " fill="#1D4E93" transform="translate(561,225)"/>
<path d="M0 0 C7.3058085 5.21712881 13.12658098 11.2567546 19 18 C20.23943359 19.40958984 20.23943359 19.40958984 21.50390625 20.84765625 C41.06288085 43.67169242 57.11075191 71.20656596 66 100 C66.20431641 100.65967773 66.40863281 101.31935547 66.61914062 101.99902344 C71.9562933 119.4858575 76.14040618 137.85201954 76.16796875 156.1953125 C76.17220352 157.05711624 76.17643829 157.91891998 76.18080139 158.80683899 C76.19063673 161.5796096 76.19073193 164.35221513 76.1875 167.125 C76.18689575 168.07029572 76.1862915 169.01559143 76.18566895 169.98953247 C76.14177322 195.19611732 74.10449334 218.98828302 66 243 C67.65 243 69.3 243 71 243 C71 250.59 71 258.18 71 266 C68.56625 265.773125 66.1325 265.54625 63.625 265.3125 C60.45168763 265.2993274 57.88694509 265.63810133 55 267 C50.65996933 271.62927918 48.44916596 277.90467281 46.02001953 283.67871094 C39.01630438 299.61727571 25.74157264 313.94433304 14.12109375 326.65234375 C12.17100374 328.81073066 10.30396244 331.01955622 8.4375 333.25 C4.67904261 337.5678557 0.3189074 341.37875238 -4.85571289 343.90649414 C-7.08875335 345.04526087 -9.11802098 346.33219538 -11.203125 347.72265625 C-12.01096436 348.25705322 -12.81880371 348.7914502 -13.65112305 349.34204102 C-14.50875244 349.90979248 -15.36638184 350.47754395 -16.25 351.0625 C-22.62999315 355.24529424 -29.0375791 359.32090825 -35.6875 363.0625 C-36.2969043 363.40740479 -36.90630859 363.75230957 -37.53417969 364.10766602 C-51.44099886 371.7989033 -67.36165417 378.2632714 -82.94140625 381.359375 C-86.29797707 382.06241154 -89.52460606 383.02634743 -92.8125 384 C-118.74339006 390.85165794 -149.55920518 391.91124915 -176 387 C-176.97291992 386.82275391 -177.94583984 386.64550781 -178.94824219 386.46289062 C-195.13301863 383.46911875 -210.49835072 379.91920897 -225.51953125 373.09375 C-228.29976189 371.86782153 -231.11588375 370.75220137 -233.9375 369.625 C-238.6714836 367.66900678 -242.95582502 365.39844248 -247.2578125 362.625 C-249.70848581 361.17274915 -252.15566741 359.9547178 -254.72265625 358.7265625 C-260.00578108 356.11136688 -264.61879481 352.922716 -269.3125 349.375 C-270.13717773 348.7574585 -270.96185547 348.13991699 -271.81152344 347.50366211 C-299.02513441 326.96613874 -321.09790617 302.2818146 -337 272 C-337.58007812 270.94256592 -337.58007812 270.94256592 -338.171875 269.86376953 C-338.54828125 269.15720215 -338.9246875 268.45063477 -339.3125 267.72265625 C-339.65925781 267.08207275 -340.00601562 266.44148926 -340.36328125 265.78149414 C-341 264 -341 264 -340 261 C-339.62415771 261.74552124 -339.62415771 261.74552124 -339.24072266 262.50610352 C-328.64787741 283.39154329 -316.04679226 300.94721618 -300 318 C-299.38382812 318.65871094 -298.76765625 319.31742188 -298.1328125 319.99609375 C-279.7987247 338.98810336 -254.98634372 355.3259843 -230 364 C-228.14545834 364.6864878 -226.29127839 365.37395374 -224.4375 366.0625 C-222.62641745 366.71229763 -220.8139029 367.35811745 -219 368 C-218.07960938 368.32871094 -217.15921875 368.65742187 -216.2109375 368.99609375 C-207.93558624 371.86235423 -199.55943489 374.16705897 -191 376 C-190.29987793 376.15388184 -189.59975586 376.30776367 -188.87841797 376.46630859 C-175.61087999 379.23599323 -162.3056989 379.26487477 -148.8125 379.25 C-147.44387817 379.24897278 -147.44387817 379.24897278 -146.04760742 379.2479248 C-143.43394348 379.24145825 -140.82060724 379.22510451 -138.20703125 379.203125 C-137.40900589 379.19873413 -136.61098053 379.19434326 -135.78877258 379.18981934 C-131.76346949 379.22544207 -131.76346949 379.22544207 -128 378 C-125.95753317 377.66261596 -123.90772739 377.36919485 -121.85546875 377.09765625 C-120.62119141 376.92943359 -119.38691406 376.76121094 -118.11523438 376.58789062 C-115.50876986 376.23923873 -112.90199982 375.892863 -110.29492188 375.54882812 C-109.05677734 375.37931641 -107.81863281 375.20980469 -106.54296875 375.03515625 C-105.40883545 374.8844165 -104.27470215 374.73367676 -103.10620117 374.57836914 C-100.15862203 374.02953514 -97.73696702 373.19654283 -95 372 C-92.94380545 371.33436428 -90.88072182 370.68976825 -88.8125 370.0625 C-87.66136719 369.70929688 -86.51023437 369.35609375 -85.32421875 368.9921875 C-83.3755843 368.41057393 -81.42164715 367.84541721 -79.45703125 367.3203125 C-72.25258922 365.36533828 -65.67154628 362.22953494 -58.98974609 358.96484375 C-57.03964563 358.01922448 -55.07834939 357.10153119 -53.11328125 356.1875 C-32.13148361 346.26778398 -13.73078985 331.94920551 3 316 C3.72832031 315.31292969 4.45664062 314.62585938 5.20703125 313.91796875 C12.96323308 306.40653858 19.4573519 297.84052064 25.875 289.1875 C26.33946533 288.56544678 26.80393066 287.94339355 27.2824707 287.30249023 C27.72292725 286.70122314 28.16338379 286.09995605 28.6171875 285.48046875 C29.00503418 284.95348389 29.39288086 284.42649902 29.79248047 283.88354492 C31.40009231 281.37591748 32.66788805 278.6642239 34 276 C29.38 276 24.76 276 20 276 C20 270.72 20 265.44 20 260 C22.31 259.67 24.62 259.34 27 259 C27.2784375 258.29875 27.556875 257.5975 27.84375 256.875 C29.4506531 252.87945715 31.11914841 248.91032818 32.78125 244.9375 C33.1834375 243.968125 33.585625 242.99875 34 242 C34.36867188 241.20207031 34.73734375 240.40414062 35.1171875 239.58203125 C36.25203589 236.26285078 36.42890345 233.18455506 36.625 229.6875 C36.73714844 227.80611328 36.73714844 227.80611328 36.8515625 225.88671875 C36.90054687 224.93410156 36.94953125 223.98148438 37 223 C38.65 223 40.3 223 42 223 C42.04898437 222.34773437 42.09796875 221.69546875 42.1484375 221.0234375 C42.26058594 219.71246094 42.26058594 219.71246094 42.375 218.375 C42.44460938 217.51648438 42.51421875 216.65796875 42.5859375 215.7734375 C43 213 43 213 43.9375 210.19921875 C52.3859507 184.7606852 50.17382283 150.65378437 44 125 C43.67854004 123.65711914 43.67854004 123.65711914 43.35058594 122.28710938 C35.69319519 91.36774702 21.47887104 60.19961936 -0.2109375 36.59375 C-6.04987634 28.12856356 -1.10590282 9.81488754 0 0 Z " fill="#2791A4" transform="translate(665,280)"/>
<path d="M0 0 C0.24333339 7.92185376 -0.07661343 15.62677216 -0.875 23.5 C-1.97749915 34.44080068 -2.56738659 45.39579309 -3.125 56.375 C-3.16929138 57.24616455 -3.21358276 58.1173291 -3.25921631 59.01489258 C-3.5118281 64.00965779 -3.75835425 69.0046928 -4 74 C-7.38478859 72.87173714 -7.74841626 72.30220768 -9.62890625 69.4375 C-10.34530273 68.36628906 -10.34530273 68.36628906 -11.07617188 67.2734375 C-11.8119043 66.14808594 -11.8119043 66.14808594 -12.5625 65 C-13.53893214 63.51816557 -14.51922034 62.03886264 -15.50390625 60.5625 C-16.15081421 59.57443359 -16.15081421 59.57443359 -16.81079102 58.56640625 C-17.93217391 56.84976089 -17.93217391 56.84976089 -20 56 C-20.21011719 56.65355469 -20.42023438 57.30710937 -20.63671875 57.98046875 C-22.51952905 62.15070474 -25.11481576 65.63130143 -27.8125 69.3125 C-28.67439941 70.49694702 -28.67439941 70.49694702 -29.55371094 71.70532227 C-34.9724128 79.08487446 -40.69602197 86.1911841 -46.54248047 93.23388672 C-47.88829961 94.86464981 -49.21594185 96.50784417 -50.53515625 98.16015625 C-54.42076384 103.00550225 -58.37483632 107.57790024 -62.8828125 111.85546875 C-64.74215847 113.73882841 -66.45805576 115.6674722 -68.18359375 117.671875 C-72.23659455 122.33875451 -76.5572057 126.7043844 -80.9375 131.0625 C-81.69740234 131.82626953 -82.45730469 132.59003906 -83.24023438 133.37695312 C-87.99689818 138.12549282 -92.89121521 142.63448101 -98 147 C-99.10595571 147.96167985 -100.21144675 148.92389442 -101.31640625 149.88671875 C-118.07067507 164.37931461 -135.49217557 177.80795031 -154 190 C-158.69408844 187.539572 -163.19773011 184.94448759 -167.51953125 181.87109375 C-168.38771484 181.25790283 -169.25589844 180.64471191 -170.15039062 180.01293945 C-171.09076172 179.34866943 -172.03113281 178.68439941 -173 178 C-177.25900419 175.02432242 -181.53300991 172.0711178 -185.8125 169.125 C-186.36639404 168.73860352 -186.92028809 168.35220703 -187.4909668 167.95410156 C-189.12007477 166.81836697 -190.75721167 165.69417657 -192.39453125 164.5703125 C-193.83082886 163.57668701 -193.83082886 163.57668701 -195.29614258 162.56298828 C-198.03105391 160.98204902 -199.85268339 160.17085615 -203 160 C-205.19143761 160.83831946 -205.19143761 160.83831946 -207.24609375 162.33203125 C-208.06762939 162.87400146 -208.88916504 163.41597168 -209.7355957 163.97436523 C-210.62722412 164.58094971 -211.51885254 165.18753418 -212.4375 165.8125 C-214.41678234 167.11576634 -216.39869896 168.41503813 -218.3828125 169.7109375 C-219.44790039 170.40799805 -220.51298828 171.10505859 -221.61035156 171.82324219 C-227.57977218 175.68662788 -233.70522212 179.29792422 -239.8125 182.9375 C-241.1004241 183.70705629 -242.3882657 184.47675065 -243.67602539 185.24658203 C-246.84652739 187.14086439 -250.01870991 189.03231048 -253.19158936 190.92260742 C-266.56537318 198.89027532 -279.9136355 206.88988243 -293.125 215.125 C-294.11483887 215.74076904 -295.10467773 216.35653809 -296.12451172 216.9909668 C-301.20814944 220.17517021 -306.16415679 223.45014279 -311 227 C-311.66 226.67 -312.32 226.34 -313 226 C-305.93208395 219.93004552 -298.79482292 213.98642529 -291.44042969 208.26611328 C-286.94629383 204.76423726 -282.52994241 201.17564491 -278.125 197.5625 C-272.17573786 192.69368022 -266.10536896 188.02715717 -259.93017578 183.44946289 C-255.37314958 180.06094781 -250.91562104 176.57043451 -246.5 173 C-240.83368753 168.42193449 -235.06621995 164.00792995 -229.2199707 159.66259766 C-223.02487424 155.04782896 -216.93052698 150.30826945 -210.8503418 145.54345703 C-210.13015869 144.97997559 -209.40997559 144.41649414 -208.66796875 143.8359375 C-208.03141357 143.33626465 -207.3948584 142.8365918 -206.73901367 142.32177734 C-202.31624964 138.96015381 -202.31624964 138.96015381 -200.0390625 139.24707031 C-197.97431447 140.00948446 -196.2484245 140.89392173 -194.375 142.046875 C-193.67769775 142.47363525 -192.98039551 142.90039551 -192.26196289 143.34008789 C-191.51551514 143.80535889 -190.76906738 144.27062988 -190 144.75 C-189.22197021 145.23009521 -188.44394043 145.71019043 -187.64233398 146.20483398 C-177.310468 152.61569989 -167.11685637 159.25542909 -157 166 C-153.19793006 165.72391608 -150.9611224 163.57967011 -148.125 161.1875 C-147.15175781 160.36894531 -146.17851562 159.55039062 -145.17578125 158.70703125 C-144.39968506 158.04501709 -144.39968506 158.04501709 -143.60791016 157.36962891 C-141.98960913 155.99114898 -140.36090924 154.62580731 -138.73046875 153.26171875 C-123.25335398 140.23600376 -108.15322448 126.39153611 -95 111 C-93.97635599 109.82716789 -92.95150099 108.65539218 -91.92578125 107.484375 C-90.78380212 106.1771288 -89.64187559 104.86983665 -88.5 103.5625 C-87.96592529 102.9538208 -87.43185059 102.3451416 -86.8815918 101.71801758 C-82.73333764 96.9508477 -78.84272219 92.01539132 -75 87 C-74.12625732 85.8704187 -74.12625732 85.8704187 -73.23486328 84.71801758 C-62.45749512 70.75124701 -52.6692776 56.3691877 -44 41 C-51.96600635 39.10031645 -59.92614962 37.37530517 -68 36 C-68 35.34 -68 34.68 -68 34 C-67.21858643 33.63986816 -67.21858643 33.63986816 -66.42138672 33.27246094 C-55.22770676 28.0888923 -44.28106013 22.61286699 -33.49291992 16.63085938 C-26.3078071 12.66577709 -19.02932772 8.91626402 -11.6875 5.25 C-10.63651123 4.72422363 -9.58552246 4.19844727 -8.50268555 3.65673828 C-1.13577663 0 -1.13577663 0 0 0 Z " fill="#EA9126" transform="translate(658,258)"/>
<path d="M0 0 C0.33 0 0.66 0 1 0 C1 35.97 1 71.94 1 109 C-7.415 109.99 -7.415 109.99 -16 111 C-48.70636015 117.10193286 -84.14076725 129.28206582 -108.0546875 153.453125 C-110 155 -110 155 -114 155 C-116.34765625 153.234375 -116.34765625 153.234375 -119.0625 150.75 C-132.32548895 139.17864405 -147.90572985 130.91280778 -164 124 C-164.98202393 123.57146729 -164.98202393 123.57146729 -165.98388672 123.13427734 C-182.12591306 116.20552658 -199.71061279 112.68535654 -217 110 C-217 109.34 -217 108.68 -217 108 C-214.24338253 105.66235103 -211.15151189 103.78109194 -208.125 101.8125 C-206.89136719 100.95495117 -206.89136719 100.95495117 -205.6328125 100.08007812 C-200.05260588 96.45730336 -196.43073958 95.43128987 -189.83154297 96.5769043 C-188.9249292 96.78633667 -188.9249292 96.78633667 -188 97 C-188.17917969 95.96617187 -188.35835938 94.93234375 -188.54296875 93.8671875 C-188 90 -188 90 -186.39306641 88.40722656 C-184.09124184 86.84555361 -181.74759986 85.46928026 -179.3125 84.125 C-178.49587891 83.6403125 -177.67925781 83.155625 -176.83789062 82.65625 C-169.1109793 78.17651841 -169.1109793 78.17651841 -165 78 C-162.21801758 79.54394531 -162.21801758 79.54394531 -160 82 C-159.43237305 84.93261719 -159.43237305 84.93261719 -159.51171875 88.296875 C-159.52783203 89.50214844 -159.54394531 90.70742188 -159.56054688 91.94921875 C-159.62338867 93.83060547 -159.62338867 93.83060547 -159.6875 95.75 C-159.71005859 97.01972656 -159.73261719 98.28945313 -159.75585938 99.59765625 C-159.81479361 102.73295773 -159.89702921 105.86588595 -160 109 C-158.6078125 109.44593506 -158.6078125 109.44593506 -157.1875 109.90087891 C-153.82508352 111.0603151 -151.05160193 112.55516447 -148 114.375 C-147.01 114.96023438 -146.02 115.54546875 -145 116.1484375 C-141.9549283 118.02781769 -138.97736052 120.01509299 -136 122 C-136 114.08 -136 106.16 -136 98 C-127 103 -127 103 -123.75 105.375 C-121.22277786 107.19443837 -121.22277786 107.19443837 -118.84375 106.953125 C-114.60378269 105.53203705 -111.33857998 102.99907761 -107.75 100.375 C-106.99581787 99.83391602 -106.24163574 99.29283203 -105.46459961 98.73535156 C-100.72951583 95.32041669 -96.07756135 91.81717371 -91.56640625 88.109375 C-90 87 -90 87 -88 87 C-88 98.22 -88 109.44 -88 121 C-85.628125 119.576875 -83.25625 118.15375 -80.8125 116.6875 C-76.76953125 114.26171875 -76.76953125 114.26171875 -74.80712891 113.09130859 C-73.25597348 112.15458004 -71.72534492 111.18400742 -70.19921875 110.20703125 C-68 109 -68 109 -65 109 C-65.07331543 107.79053711 -65.14663086 106.58107422 -65.22216797 105.33496094 C-65.4778414 100.79642993 -65.63704726 96.25851308 -65.76904297 91.71484375 C-65.83895222 89.75867345 -65.9341338 87.80322168 -66.05615234 85.84960938 C-67.01491233 70.09049565 -67.01491233 70.09049565 -63.68945312 64.98986816 C-60.44739265 61.43209506 -56.67312558 58.74249148 -52.65655518 56.12390137 C-50.55231598 54.69626567 -48.82598185 53.04409912 -47.078125 51.203125 C-46.59085938 50.70039063 -46.10359375 50.19765625 -45.6015625 49.6796875 C-45.15554688 49.20789063 -44.70953125 48.73609375 -44.25 48.25 C-42.5358153 46.44606741 -40.80928571 44.71214286 -39 43 C-38.34 43 -37.68 43 -37 43 C-37 60.82 -37 78.64 -37 97 C-30.4 95.68 -23.8 94.36 -17 93 C-17.03254883 90.83163574 -17.06509766 88.66327148 -17.09863281 86.42919922 C-17.19804312 79.21281092 -17.23024504 71.99720236 -17.23059464 64.78016472 C-17.23282186 60.40986437 -17.25670111 56.04205561 -17.33251953 51.67236328 C-17.40505111 47.44383593 -17.41749879 43.21877223 -17.39070892 38.98974991 C-17.39065372 37.38793422 -17.41116728 35.78596316 -17.4539566 34.18471909 C-17.69344686 24.63231134 -16.68714133 18.49293363 -10.16308594 11.21533203 C-8.61412723 9.59076975 -7.04013476 8.00480012 -5.42876434 6.44223404 C-3.44196961 4.43670877 -1.75412556 2.20824754 0 0 Z " fill="#36A14A" transform="translate(623,349)"/>
<path d="M0 0 C0 -0.99 0 -1.98 0 -3 C4.62 -3 9.24 -3 14 -3 C14.33 -0.69 14.66 1.62 15 4 C15.64735107 4.22026855 16.29470215 4.44053711 16.96166992 4.66748047 C38.32970492 11.99678619 58.15453384 20.47189661 77 33 C74.66466915 35.59734822 72.27902823 37.06874347 69.18359375 38.6640625 C68.25482422 39.14617187 67.32605469 39.62828125 66.36914062 40.125 C65.40169922 40.62 64.43425781 41.115 63.4375 41.625 C62.46619141 42.12773437 61.49488281 42.63046875 60.49414062 43.1484375 C57.33697078 44.78077549 54.17898513 46.41050743 51 48 C51 47.34 51 46.68 51 46 C49.98679687 45.61908203 49.98679687 45.61908203 48.953125 45.23046875 C46.13881284 44.05783868 43.44506436 42.73153212 40.73608398 41.33520508 C26.97525956 34.24926857 12.78137069 28.5784524 -2 24 C-3.03769531 23.66742188 -4.07539062 23.33484375 -5.14453125 22.9921875 C-10.56427381 21.59744119 -16.03292016 20.77570144 -21.5625 19.9375 C-22.65369141 19.76412109 -23.74488281 19.59074219 -24.86914062 19.41210938 C-50.95956342 15.40881699 -77.15425471 15.70522806 -103 21 C-103.80356934 21.16016602 -104.60713867 21.32033203 -105.43505859 21.48535156 C-156.52220009 31.86363219 -206.99477022 63.08067253 -237 106 C-237.48259277 106.68610352 -237.96518555 107.37220703 -238.46240234 108.07910156 C-245.86079695 117.57597998 -245.86079695 117.57597998 -249.5625 128.625 C-249.64628906 129.44226563 -249.73007812 130.25953125 -249.81640625 131.1015625 C-249.87699219 131.72804688 -249.93757813 132.35453125 -250 133 C-250.75667969 133.05027344 -251.51335937 133.10054687 -252.29296875 133.15234375 C-255.21450927 133.76978627 -255.21450927 133.76978627 -256.80078125 136.50390625 C-257.54908203 138.01791016 -257.54908203 138.01791016 -258.3125 139.5625 C-258.82425781 140.57441406 -259.33601563 141.58632813 -259.86328125 142.62890625 C-260.23839844 143.41136719 -260.61351562 144.19382812 -261 145 C-260.01 145 -259.02 145 -258 145 C-258 149.62 -258 154.24 -258 159 C-260.97 159.33 -263.94 159.66 -267 160 C-278.26699908 186.70518505 -281.25385516 215.30218058 -283 244 C-283.33 244 -283.66 244 -284 244 C-284.47312834 214.03035282 -283.91932776 185.23208308 -273.8046875 156.65234375 C-272.81491901 153.38995151 -272.530771 150.27068483 -272.26953125 146.88671875 C-271.87437871 144.12065097 -270.56186477 142.28272543 -269 140 C-267.92661294 137.69294636 -266.96921451 135.35380666 -266 133 C-267.98 133 -269.96 133 -272 133 C-272 125.41 -272 117.82 -272 110 C-265.73 110 -259.46 110 -253 110 C-252.34 108.35 -251.68 106.7 -251 105 C-249.56515113 102.61888093 -248.10839884 100.30616718 -246.5625 98 C-245.90640747 97.01858032 -245.90640747 97.01858032 -245.23706055 96.01733398 C-240.63000139 89.2581912 -235.41020716 83.12207652 -230 77 C-229.37351562 76.27425781 -228.74703125 75.54851562 -228.1015625 74.80078125 C-226.41759857 72.85196853 -224.70995474 70.92602745 -223 69 C-222.25363281 68.13761719 -221.50726563 67.27523437 -220.73828125 66.38671875 C-214.969929 59.83959367 -208.87273551 54.35455188 -202 49 C-200.9511359 48.14174805 -199.90432607 47.28098067 -198.859375 46.41796875 C-170.00205632 22.80045302 -135.36764127 6.82365744 -99 -1 C-98.02466309 -1.21027832 -97.04932617 -1.42055664 -96.04443359 -1.63720703 C-64.50158181 -8.11819317 -31.43032169 -6.10692779 0 0 Z " fill="#46D6BF" transform="translate(561,225)"/>
<path d="M0 0 C0 24.09 0 48.18 0 73 C-25.4985327 83.19941308 -25.4985327 83.19941308 -38.875 85.6875 C-40.52628906 86.00557617 -40.52628906 86.00557617 -42.2109375 86.33007812 C-44.24384901 86.72111753 -46.27745835 87.10856176 -48.31201172 87.4909668 C-49.97070597 87.8050792 -51.62405651 88.15179207 -53.2644043 88.55078125 C-57.28507321 89.21102496 -61.27124045 89.20268836 -65.33984375 89.23828125 C-66.25019379 89.24812042 -67.16054382 89.25795959 -68.09848022 89.26809692 C-105.69615442 89.59077741 -105.69615442 89.59077741 -122 85 C-122.95052246 84.7426709 -123.90104492 84.4853418 -124.88037109 84.22021484 C-136.62383512 80.99788835 -147.98396729 77.21209173 -159 72 C-159 69 -159 69 -157.19921875 67.0546875 C-155.95591797 65.97574219 -155.95591797 65.97574219 -154.6875 64.875 C-153.77355469 64.07835937 -152.85960937 63.28171875 -151.91796875 62.4609375 C-148.2220222 59.34387414 -144.477531 56.2908116 -140.71875 53.25 C-138.07852271 51.06498431 -135.5327028 48.80828609 -133 46.5 C-128.64512928 42.53284432 -124.14019585 38.79231056 -119.5625 35.0859375 C-116.32260914 32.44858732 -113.15682201 29.73591241 -110 27 C-105.80131648 28.71670311 -102.73429481 31.66572947 -99.375 34.625 C-94.50944601 38.85575222 -89.59156593 42.97891291 -84.53125 46.9765625 C-79.62027916 50.90230771 -74.81753561 54.96055434 -70 59 C-65.96043908 57.31520752 -62.88690716 54.52880832 -59.625 51.6875 C-59.01358154 51.15987061 -58.40216309 50.63224121 -57.7722168 50.08862305 C-52.75165948 45.72557317 -47.88895603 41.20509054 -43.04370117 36.64941406 C-38.78067549 32.66348805 -34.34505739 28.96523401 -29.7890625 25.31640625 C-25.37465971 21.65010253 -21.21487016 17.71726549 -17.01953125 13.8046875 C-2.21162299 0 -2.21162299 0 0 0 Z " fill="#EF8C23" transform="translate(587,547)"/>
<path d="M0 0 C9.00596853 0 9.00596853 0 13.13671875 0.76953125 C14.48733398 1.01703125 14.48733398 1.01703125 15.86523438 1.26953125 C16.79658203 1.44871094 17.72792969 1.62789063 18.6875 1.8125 C20.14833008 2.08707031 20.14833008 2.08707031 21.63867188 2.3671875 C28.80488151 3.73081754 35.9313707 5.1910988 43 7 C44.06476563 7.26167969 45.12953125 7.52335937 46.2265625 7.79296875 C71.07042912 14.33233134 93.25964626 26.344671 111 45 C114.16778229 43.61668896 116.06512662 42.05026744 118.375 39.5 C138.03970896 19.54769018 167.03192096 8.50194158 194 3 C195.32 3 196.64 3 198 3 C196.37561972 8.05142647 193.38664228 11.92495948 190.25 16.125 C189.73695313 16.84042969 189.22390625 17.55585938 188.6953125 18.29296875 C184.22105194 24.30736423 179.76089693 26.58265022 172.625 28.75 C154.37255618 34.75142158 138.80549979 43.49822121 125 57 C124.46584473 57.39195557 123.93168945 57.78391113 123.38134766 58.18774414 C121.23349724 61.00561153 121.78837457 63.42410595 121.9453125 66.90625 C121.98188557 68.29986016 122.01395737 69.69359428 122.04199219 71.08740234 C122.06585999 72.17175568 122.06585999 72.17175568 122.09020996 73.27801514 C122.37202241 91.27693148 122.37202241 91.27693148 118.2265625 96.4921875 C115.13028912 99.39143341 111.86018909 101.27114754 108 103 C107.19691406 103.50144531 106.39382813 104.00289063 105.56640625 104.51953125 C101.91469875 105.20318425 100.2301166 103.78523966 97.22851562 101.76757812 C96.55498047 101.28740234 95.88144531 100.80722656 95.1875 100.3125 C94.49462891 99.85166016 93.80175781 99.39082031 93.08789062 98.91601562 C89.34824204 96.34063202 89.34824204 96.34063202 88 95 C88 94.01 88 93.02 88 92 C89.35490296 92.11674901 90.70890696 92.24393423 92.0625 92.375 C93.19365234 92.47941406 93.19365234 92.47941406 94.34765625 92.5859375 C97.66006157 93.10304349 100.78471009 94.06062776 104 95 C104.0551311 90.16071436 104.05729155 85.32523156 104.01220703 80.48583984 C104.00413939 78.84294436 104.01007504 77.19991395 104.03076172 75.55712891 C104.3653763 66.04856122 104.3653763 66.04856122 101.38085938 57.265625 C99.37213696 55.21645851 97.3694575 53.6112311 95 52 C93.90534047 51.10527829 92.81150946 50.20954135 91.71875 49.3125 C71.30832745 34.64870128 48.1820162 26.66196621 23.7512207 21.44238281 C22.48776321 21.17226379 21.22430573 20.90214478 19.92256165 20.62384033 C18.47589363 20.31503937 18.47589363 20.31503937 17 20 C17.05329468 21.63252716 17.05329468 21.63252716 17.10766602 23.29803467 C17.43313098 33.59462068 17.67236853 43.89015417 17.82899475 54.19073105 C17.91223673 59.4859552 18.02494093 64.77700394 18.20703125 70.06982422 C18.38192839 75.18605152 18.476745 80.29828722 18.51803589 85.41727448 C18.54742294 87.36175657 18.60482357 89.30603868 18.69168091 91.24880219 C19.32779345 106.07762465 19.32779345 106.07762465 15.36932373 111.04719543 C4.8746072 121 4.8746072 121 0 121 C0 81.07 0 41.14 0 0 Z " fill="#4FBC53" transform="translate(398,310)"/>
<path d="M0 0 C0.33 0 0.66 0 1 0 C1.33 2.97 1.66 5.94 2 9 C3.98 9.33 5.96 9.66 8 10 C-2.12247538 32.78246503 -16.04593457 52.24401597 -32.87890625 70.65234375 C-34.82899626 72.81073066 -36.69603756 75.01955622 -38.5625 77.25 C-42.32095739 81.5678557 -46.6810926 85.37875238 -51.85571289 87.90649414 C-54.08875335 89.04526087 -56.11802098 90.33219538 -58.203125 91.72265625 C-59.01096436 92.25705322 -59.81880371 92.7914502 -60.65112305 93.34204102 C-61.50875244 93.90979248 -62.36638184 94.47754395 -63.25 95.0625 C-69.62999315 99.24529424 -76.0375791 103.32090825 -82.6875 107.0625 C-83.2969043 107.40740479 -83.90630859 107.75230957 -84.53417969 108.10766602 C-98.44099886 115.7989033 -114.36165417 122.2632714 -129.94140625 125.359375 C-133.29797707 126.06241154 -136.52460606 127.02634743 -139.8125 128 C-165.74339006 134.85165794 -196.55920518 135.91124915 -223 131 C-223.97291992 130.82275391 -224.94583984 130.64550781 -225.94824219 130.46289062 C-242.13301863 127.46911875 -257.49835072 123.91920897 -272.51953125 117.09375 C-275.29976189 115.86782153 -278.11588375 114.75220137 -280.9375 113.625 C-285.6714836 111.66900678 -289.95582502 109.39844248 -294.2578125 106.625 C-296.70848581 105.17274915 -299.15566741 103.9547178 -301.72265625 102.7265625 C-307.00578108 100.11136688 -311.61879481 96.922716 -316.3125 93.375 C-317.5495166 92.44868774 -317.5495166 92.44868774 -318.81152344 91.50366211 C-346.02513441 70.96613874 -368.09790617 46.2818146 -384 16 C-384.58007812 14.94256592 -384.58007812 14.94256592 -385.171875 13.86376953 C-385.54828125 13.15720215 -385.9246875 12.45063477 -386.3125 11.72265625 C-386.83263672 10.76178101 -386.83263672 10.76178101 -387.36328125 9.78149414 C-388 8 -388 8 -387 5 C-386.74943848 5.49701416 -386.49887695 5.99402832 -386.24072266 6.50610352 C-375.64787741 27.39154329 -363.04679226 44.94721618 -347 62 C-346.38382812 62.65871094 -345.76765625 63.31742188 -345.1328125 63.99609375 C-326.7987247 82.98810336 -301.98634372 99.3259843 -277 108 C-275.14545834 108.6864878 -273.29127839 109.37395374 -271.4375 110.0625 C-269.62641745 110.71229763 -267.8139029 111.35811745 -266 112 C-265.07960938 112.32871094 -264.15921875 112.65742187 -263.2109375 112.99609375 C-254.93558624 115.86235423 -246.55943489 118.16705897 -238 120 C-236.94981689 120.23082275 -236.94981689 120.23082275 -235.87841797 120.46630859 C-222.61087999 123.23599323 -209.3056989 123.26487477 -195.8125 123.25 C-194.90008545 123.24931519 -193.9876709 123.24863037 -193.04760742 123.2479248 C-190.43394348 123.24145825 -187.82060724 123.22510451 -185.20703125 123.203125 C-184.00999321 123.1965387 -184.00999321 123.1965387 -182.78877258 123.18981934 C-178.76346949 123.22544207 -178.76346949 123.22544207 -175 122 C-172.95753317 121.66261596 -170.90772739 121.36919485 -168.85546875 121.09765625 C-167.62119141 120.92943359 -166.38691406 120.76121094 -165.11523438 120.58789062 C-162.50876986 120.23923873 -159.90199982 119.892863 -157.29492188 119.54882812 C-156.05677734 119.37931641 -154.81863281 119.20980469 -153.54296875 119.03515625 C-152.40883545 118.8844165 -151.27470215 118.73367676 -150.10620117 118.57836914 C-147.15862203 118.02953514 -144.73696702 117.19654283 -142 116 C-139.94380545 115.33436428 -137.88072182 114.68976825 -135.8125 114.0625 C-134.66136719 113.70929688 -133.51023437 113.35609375 -132.32421875 112.9921875 C-130.3755843 112.41057393 -128.42164715 111.84541721 -126.45703125 111.3203125 C-119.25258922 109.36533828 -112.67154628 106.22953494 -105.98974609 102.96484375 C-104.03964563 102.01922448 -102.07834939 101.10153119 -100.11328125 100.1875 C-79.13148361 90.26778398 -60.73078985 75.94920551 -44 60 C-42.90751953 58.96939453 -42.90751953 58.96939453 -41.79296875 57.91796875 C-25.1429442 41.79338876 -10.54655374 20.62151361 0 0 Z " fill="#25AFD0" transform="translate(712,536)"/>
<path d="M0 0 C0 -0.99 0 -1.98 0 -3 C4.62 -3 9.24 -3 14 -3 C14.33 -0.69 14.66 1.62 15 4 C15.64735107 4.22026855 16.29470215 4.44053711 16.96166992 4.66748047 C38.32970492 11.99678619 58.15453384 20.47189661 77 33 C73.71461641 36.54187518 69.85383157 38.44807652 65.625 40.6875 C64.86960937 41.10322266 64.11421875 41.51894531 63.3359375 41.94726562 C55.98872478 45.85850037 55.98872478 45.85850037 52 45 C49.76368844 43.80513696 47.73049855 42.57964914 45.625 41.1875 C39.04894382 37.04512225 32.26143532 33.53549157 25.25 30.1875 C23.83195068 29.50433716 23.83195068 29.50433716 22.38525391 28.80737305 C12.10262579 23.94686828 1.80401604 20.51289019 -9.25 17.875 C-11.31796234 17.37344197 -13.38567764 16.87086409 -15.453125 16.3671875 C-16.80132324 16.04403564 -16.80132324 16.04403564 -18.17675781 15.71435547 C-20.26986247 15.18474424 -22.34892157 14.59894583 -24.41845703 13.98364258 C-37.9125419 10.27759841 -52.13186994 10.6570352 -66.0078125 10.68432617 C-69.36230962 10.68748804 -72.7159235 10.66393526 -76.0703125 10.63867188 C-88.70703257 10.60084471 -100.63896796 11.35188116 -113 14 C-114.08265137 14.22437744 -115.16530273 14.44875488 -116.28076172 14.67993164 C-119.11916111 15.29908654 -121.93407932 15.97346743 -124.75 16.6875 C-125.75313232 16.94168701 -126.75626465 17.19587402 -127.78979492 17.45776367 C-156.96605844 25.10368856 -184.50677727 38.03139794 -208 57 C-209.32829411 58.00668393 -210.65944178 59.00970639 -212 60 C-202.09161441 36.5658817 -157.7183214 18.81357677 -136.1328125 9.97265625 C-92.4158856 -7.23833551 -45.73868494 -8.88705018 0 0 Z " fill="#2BBEA0" transform="translate(561,225)"/>
<path d="M0 0 C5.28 0 10.56 0 16 0 C16 44.55 16 89.1 16 135 C5.11 133.02 5.11 133.02 -6 131 C-44.1531826 125.9798444 -85.92008015 126.58538263 -121.671875 142.21484375 C-124 143 -124 143 -127 142 C-109.44450114 131.25694976 -91.8978435 123.27655364 -72 118 C-70.93265625 117.70351563 -69.8653125 117.40703125 -68.765625 117.1015625 C-56.63076076 113.85917814 -44.57664892 112.67850827 -32.04101562 112.79418945 C-30.00117402 112.81248947 -27.96179053 112.8146976 -25.921875 112.81445312 C-17.21258316 112.84620252 -8.73037633 113.37640169 0 114 C0 76.38 0 38.76 0 0 Z " fill="#205699" transform="translate(643,360)"/>
<path d="M0 0 C0.12308347 11.05016019 -0.16941486 21.97991499 -1 33 C-1.66 33 -2.32 33 -3 33 C-4.28006797 31.21601386 -5.47660351 29.37146094 -6.625 27.5 C-7.25664063 26.4790625 -7.88828125 25.458125 -8.5390625 24.40625 C-9.26222656 23.21515625 -9.26222656 23.21515625 -10 22 C-13.71268094 23.54127351 -15.98115698 25.80843234 -18.75 28.6875 C-21.6527624 31.64924451 -24.53616317 34.55377965 -27.6875 37.25 C-31.6921566 40.67792106 -35.53082003 44.26971582 -39.375 47.875 C-45.18759108 53.32206881 -51.05698425 58.69516043 -57 64 C-58.68801487 65.52026184 -60.37550844 67.0411027 -62.0625 68.5625 C-66.6905282 72.72845882 -71.34040897 76.86939636 -76 81 C-79.39743025 79.48133302 -82.01618284 77.49720998 -84.875 75.125 C-85.84179688 74.32320312 -86.80859375 73.52140625 -87.8046875 72.6953125 C-91.2244441 69.82169295 -94.61247674 66.91147149 -98 64 C-99.18481327 62.98558065 -100.36970846 61.97125696 -101.5546875 60.95703125 C-103.78081672 59.0516789 -105.99209712 57.1309837 -108.1953125 55.19921875 C-109.16210938 54.37035156 -110.12890625 53.54148437 -111.125 52.6875 C-111.97320312 51.94886719 -112.82140625 51.21023438 -113.6953125 50.44921875 C-115.8225505 48.83629089 -115.8225505 48.83629089 -117.95703125 48.95703125 C-120.94198928 50.48090084 -123.18015028 52.68883449 -125.5625 55 C-129.47481394 58.69596478 -133.42912288 62.2468116 -137.625 65.625 C-141.18184136 68.48881783 -144.62539052 71.42346328 -148 74.5 C-152.33355885 78.44835362 -156.81758254 82.16624747 -161.37890625 85.84765625 C-164.48752818 88.40033983 -167.47695512 91.06722912 -170.44140625 93.78515625 C-172 95 -172 95 -174 95 C-175.516199 83.15680113 -175.516199 83.15680113 -172.16015625 78.3828125 C-169.54710145 76.06284915 -166.84770588 74.02427285 -164 72 C-162.15718073 70.5116693 -160.32379131 69.01158737 -158.5 67.5 C-157.5821875 66.7575 -156.664375 66.015 -155.71875 65.25 C-152.22091849 62.35524289 -148.88214596 59.30410461 -145.52734375 56.24609375 C-142.05105457 53.15665592 -138.42949039 50.26101141 -134.80859375 47.34375 C-130.89055287 44.07417486 -127.20092773 40.588646 -123.5078125 37.06640625 C-121.04761455 35.0392338 -119.00924818 33.98690397 -116 33 C-115.36835938 33.59425781 -114.73671875 34.18851563 -114.0859375 34.80078125 C-108.31123429 40.15111867 -102.38297609 45.14169253 -96.14428711 49.94238281 C-91.59152723 53.46799182 -87.3430601 57.23620064 -83.18359375 61.22265625 C-80.87807295 63.09924295 -78.80146806 64.04976567 -76 65 C-75.443125 64.43152344 -74.88625 63.86304688 -74.3125 63.27734375 C-70.14253061 59.05806729 -65.92269296 54.99842056 -61.421875 51.13671875 C-57.41061036 47.59774817 -53.5328467 43.9154911 -49.63256836 40.25512695 C-46.10916068 36.95327318 -42.55809613 33.69569972 -38.9375 30.5 C-32.34720503 24.62337488 -26.20082154 18.28123565 -20 12 C-20.61488281 11.60167969 -21.22976563 11.20335937 -21.86328125 10.79296875 C-22.67152344 10.26316406 -23.47976563 9.73335937 -24.3125 9.1875 C-25.11300781 8.66542969 -25.91351562 8.14335938 -26.73828125 7.60546875 C-28.73168254 6.19046369 -30.30608863 4.74504832 -32 3 C-28.35547656 2.49013736 -24.70921254 1.99394154 -21.0625 1.5 C-19.53012695 1.28537109 -19.53012695 1.28537109 -17.96679688 1.06640625 C-11.91392631 0.25419998 -6.10659056 -0.15282396 0 0 Z " fill="#F59F26" transform="translate(595,515)"/>
<path d="M0 0 C8.600625 -0.12375 8.600625 -0.12375 17.375 -0.25 C19.16341309 -0.28641602 20.95182617 -0.32283203 22.79443359 -0.36035156 C32.67762508 -0.47778018 41.06641706 -0.19879399 48.9375 6.5 C55.26977151 14.17548062 55.76155788 20.05559923 55 30 C53.48762909 36.13618005 49.84068406 39.39604301 44.8046875 42.96875 C43 44 43 44 41 44 C44.28285199 50.02637829 48.14113673 55.37716478 52.28515625 60.83398438 C56 65.79545359 56 65.79545359 56 68 C52.1727322 68.62288264 48.80765948 68.82327773 45 68 C41.83606441 65.14532127 40.02403488 61.71576553 38 58 C36.8564518 56.16524044 35.71073263 54.33183159 34.5625 52.5 C32 48.27154047 32 48.27154047 32 46 C24.74 46 17.48 46 10 46 C10 53.26 10 60.52 10 68 C6.7 68 3.4 68 0 68 C0 45.56 0 23.12 0 0 Z " fill="#060506" transform="translate(320,714)"/>
<path d="M0 0 C1.79328735 0.00489441 1.79328735 0.00489441 3.62280273 0.0098877 C21.77009651 0.08198251 39.04259811 1.01582069 56.6875 5.5625 C57.50959961 5.7702002 58.33169922 5.97790039 59.17871094 6.19189453 C62.39368631 7.01633418 65.57193599 7.87793281 68.7421875 8.86328125 C74.41951256 10.21108123 79.23023589 9.62246961 84.7278595 8.00965881 C104.58202491 2.2354848 124.13171804 -0.08227531 144.78100586 0.15087891 C148.14792961 0.18775111 151.51375284 0.19189349 154.88085938 0.19140625 C166.95376409 0.23020171 178.74994634 0.73097151 190.6875 2.5625 C191.7077124 2.71895996 192.7279248 2.87541992 193.77905273 3.03662109 C196.42296033 3.46934906 199.05500041 3.94040163 201.6875 4.4375 C203.06107666 4.69466797 203.06107666 4.69466797 204.46240234 4.95703125 C207.20677408 5.47949632 209.94763458 6.01692943 212.6875 6.5625 C213.96028809 6.81435059 213.96028809 6.81435059 215.25878906 7.07128906 C217.61499633 7.54775203 219.96413361 8.04892338 222.3125 8.5625 C223.00472656 8.70413574 223.69695312 8.84577148 224.41015625 8.99169922 C228.63514325 9.96187355 231.04274292 11.10861633 233.6875 14.5625 C235.171875 17.359375 235.171875 17.359375 236.4375 20.3125 C237.07945312 21.78976562 237.07945312 21.78976562 237.734375 23.296875 C238.04890625 24.04453125 238.3634375 24.7921875 238.6875 25.5625 C237.1028813 25.15074869 235.51990298 24.7326861 233.9375 24.3125 C233.05578125 24.08046875 232.1740625 23.8484375 231.265625 23.609375 C228.17556476 22.70529624 225.16279868 21.69587646 222.12109375 20.64453125 C215.6654924 18.47670221 209.1532553 16.92856617 202.5 15.5 C201.3130957 15.24250977 200.12619141 14.98501953 198.90332031 14.71972656 C195.50042001 13.98874689 192.09502214 13.27158888 188.6875 12.5625 C187.85460449 12.38799316 187.02170898 12.21348633 186.16357422 12.03369141 C167.02395498 8.10205743 147.79645234 7.38109311 128.3125 7.375 C127.45734802 7.37400299 126.60219604 7.37300598 125.72113037 7.37197876 C123.243689 7.37230594 120.76646653 7.38141028 118.2890625 7.39453125 C117.18857574 7.39634399 117.18857574 7.39634399 116.06585693 7.39819336 C112.29511293 7.4317235 108.54516845 7.59086228 104.78662109 7.90112305 C104.05430267 7.96051559 103.32198425 8.01990814 102.56747437 8.08110046 C100.32149955 8.45465596 100.32149955 8.45465596 98.5 11.3125 C97.901875 12.385 97.30375 13.4575 96.6875 14.5625 C89.37412701 21.70965996 82.42052696 23.07342881 72.5534668 22.97973633 C65.6657414 22.72355788 61.55493142 21.40744176 56.6953125 16.5859375 C54.39430956 14.0446692 52.22557578 11.63865157 50.6875 8.5625 C44.36362133 7.23972781 37.63130277 7.40340633 31.19140625 7.39453125 C30.31838364 7.39120285 29.44536102 7.38787445 28.54588318 7.38444519 C26.70808431 7.37941865 24.87027644 7.37703553 23.0324707 7.37719727 C20.28776074 7.37502982 17.5434663 7.35688039 14.79882812 7.33789062 C-1.56012925 7.2845301 -17.52030365 8.78823785 -33.625 11.6875 C-35.35858765 11.99747925 -35.35858765 11.99747925 -37.12719727 12.3137207 C-46.44704787 14.05787755 -55.59805309 16.29156024 -64.75 18.75 C-65.39828766 18.92412415 -66.04657532 19.09824829 -66.71450806 19.27764893 C-73.95882845 21.17396458 -73.95882845 21.17396458 -81.00415039 23.6730957 C-83.3125 24.5625 -83.3125 24.5625 -86.3125 24.5625 C-84.73194248 19.45608339 -83.1532594 14.4032594 -79.3125 10.5625 C-75.55190042 9.34205697 -71.66614772 8.56332903 -67.8125 7.6875 C-66.79929687 7.44386719 -65.78609375 7.20023437 -64.7421875 6.94921875 C-43.237225 1.99640519 -22.04866898 -0.16387628 0 0 Z " fill="#29428C" transform="translate(435.3125,495.4375)"/>
<path d="M0 0 C40.87694974 0 40.87694974 0 48.88671875 6.25390625 C49.48097656 7.01574219 50.07523437 7.77757812 50.6875 8.5625 C51.31011719 9.32691406 51.93273437 10.09132813 52.57421875 10.87890625 C56.4699904 16.67453367 55.613712 24.31193398 55 31 C52.73286193 37.47893335 47.55844784 42.22077608 41.5 45.25 C34.90278831 47.22916351 28.44759108 47.11972173 21.625 47.0625 C20.60277344 47.05798828 19.58054687 47.05347656 18.52734375 47.04882812 C16.01820377 47.03710317 13.50909414 47.01916965 11 47 C11 53.93 11 60.86 11 68 C7.37 68 3.74 68 0 68 C0 45.56 0 23.12 0 0 Z " fill="#0F0E0F" transform="translate(248,714)"/>
<path d="M0 0 C10 0 10 0 12.06274414 1.77001953 C12.44551514 2.59099121 12.82828613 3.41196289 13.22265625 4.2578125 C13.68172363 5.17336914 14.14079102 6.08892578 14.61376953 7.03222656 C15.07122559 8.0115918 15.52868164 8.99095703 16 10 C17.05159074 11.94013397 18.11299969 13.87497476 19.18359375 15.8046875 C20.27014202 17.82709847 21.35473826 19.85055926 22.4375 21.875 C26.45480243 29.35328373 30.5088005 36.77231656 34.92578125 44.0234375 C36 46 36 46 36 48 C36.66 48 37.32 48 38 48 C38.26409668 47.30052246 38.52819336 46.60104492 38.80029297 45.88037109 C40.09383431 42.77471363 41.59834914 39.87518382 43.1953125 36.9140625 C43.50422928 36.3393924 43.81314606 35.76472229 44.13142395 35.17263794 C45.12684949 33.32210319 46.12590084 31.4735535 47.125 29.625 C47.8069999 28.35854805 48.48872139 27.09194613 49.17016602 25.82519531 C50.5061117 23.34220615 51.84318002 20.85982732 53.18115234 18.37792969 C55.44446245 14.17455269 57.69430272 9.96413597 59.9375 5.75 C60.84822266 4.04070313 60.84822266 4.04070313 61.77734375 2.296875 C62.18082031 1.53890625 62.58429687 0.7809375 63 0 C66.63 0 70.26 0 74 0 C74 22.44 74 44.88 74 68 C71.03 68 68.06 68 65 68 C64.67 51.83 64.34 35.66 64 19 C61.710625 23.125 59.42125 27.25 57.0625 31.5 C51.40705245 41.68483756 45.73129779 51.85762207 40 62 C38.02 62 36.04 62 34 62 C28.48782515 52.21516051 22.99023384 42.42216709 17.5 32.625 C16.87657715 31.51326416 16.2531543 30.40152832 15.61083984 29.25610352 C15.0277002 28.21510498 14.44456055 27.17410645 13.84375 26.1015625 C13.31974609 25.16650879 12.79574219 24.23145508 12.25585938 23.26806641 C11.47635216 21.86028608 10.71964949 20.43929898 10 19 C9.67 35.17 9.34 51.34 9 68 C6.03 68 3.06 68 0 68 C0 45.56 0 23.12 0 0 Z " fill="#050505" transform="translate(692,714)"/>
<path d="M0 0 C4.09591056 1.6965904 7.20017299 4.55762627 10.5 7.4375 C11.11004883 7.96448486 11.72009766 8.49146973 12.34863281 9.03442383 C17.55574447 13.55592796 22.63359989 18.20974107 27.671875 22.91796875 C29.8122015 25.0156344 29.8122015 25.0156344 32 26 C31.67 26.66 31.34 27.32 31 28 C26.38 26.35 21.76 24.7 17 23 C17.50450684 24.18553467 18.00901367 25.37106934 18.52880859 26.5925293 C20.4041866 30.99985145 22.27885885 35.40747351 24.15332031 39.81518555 C24.9640007 41.7211917 25.77487131 43.62711697 26.5859375 45.53295898 C27.75310738 48.27566517 28.91958819 51.01866353 30.0859375 53.76171875 C30.62823502 55.03543587 30.62823502 55.03543587 31.18148804 56.33488464 C31.84369694 57.89297999 32.50381945 59.45196465 33.16131592 61.01205444 C33.84856523 62.64105186 34.5452699 64.26605724 35.24462891 65.88989258 C36 68 36 68 36 71 C31.05 71 26.1 71 21 71 C6.85106383 38.5106383 6.85106383 38.5106383 1 24 C-0.75792866 26.63689299 -1.89670625 28.93358278 -3.1015625 31.83984375 C-3.70798584 33.29777344 -3.70798584 33.29777344 -4.32666016 34.78515625 C-4.7551123 35.82542969 -5.18356445 36.86570312 -5.625 37.9375 C-6.06505371 38.9996875 -6.50510742 40.061875 -6.95849609 41.15625 C-11.05479324 51.07126854 -15.05007825 61.02589592 -19 71 C-24.28 71 -29.56 71 -35 71 C-33.01160856 64.82340082 -30.78267421 58.8473861 -28.2421875 52.87890625 C-27.8936673 52.05293442 -27.54514709 51.22696259 -27.18606567 50.3759613 C-26.08553437 47.77012597 -24.98026916 45.16632872 -23.875 42.5625 C-23.12600634 40.78983847 -22.3773058 39.01705306 -21.62890625 37.24414062 C-16.19730546 24.39461091 -16.19730546 24.39461091 -15 22 C-15.91523437 22.44472656 -16.83046875 22.88945313 -17.7734375 23.34765625 C-19.55621094 24.19650391 -19.55621094 24.19650391 -21.375 25.0625 C-22.55835938 25.63097656 -23.74171875 26.19945312 -24.9609375 26.78515625 C-25.96382812 27.18605469 -26.96671875 27.58695313 -28 28 C-28.66 27.67 -29.32 27.34 -30 27 C-20.50287976 17.32772795 -10.42439185 8.63487125 0 0 Z " fill="#EF942E" transform="translate(641,711)"/>
<path d="M0 0 C3.63 0 7.26 0 11 0 C16.23852929 10.31223719 21.26111821 20.70042525 26.05493164 31.22680664 C27.06144387 33.43518276 28.07438549 35.64052905 29.08789062 37.84570312 C33.6433879 47.79838003 37.90211474 57.85076302 42 68 C38.37 68 34.74 68 31 68 C29.99303432 65.89915791 28.9946411 63.79420511 28 61.6875 C27.1646875 59.92986328 27.1646875 59.92986328 26.3125 58.13671875 C25 55 25 55 25 52 C12.46 52 -0.08 52 -13 52 C-13.66 53.98 -14.32 55.96 -15 58 C-15.84040805 59.80815065 -16.71417058 61.60127956 -17.625 63.375 C-18.07101562 64.24898437 -18.51703125 65.12296875 -18.9765625 66.0234375 C-19.48316406 67.00183594 -19.48316406 67.00183594 -20 68 C-23.3 68 -26.6 68 -30 68 C-28.56334711 63.40473917 -26.75247495 59.0663722 -24.7265625 54.70703125 C-24.40634125 54.01089722 -24.08612 53.31476318 -23.75619507 52.59753418 C-23.07018774 51.1066394 -22.38286412 49.6163497 -21.69433594 48.12661743 C-19.88568776 44.21257684 -18.08726214 40.29384947 -16.2890625 36.375 C-15.92742004 35.58724686 -15.56577759 34.79949371 -15.19317627 33.98786926 C-10.02168612 22.70636733 -5.00854752 11.35460489 0 0 Z " fill="#0C0B0B" transform="translate(418,714)"/>
<path d="M0 0 C3.3 0 6.6 0 10 0 C10 9.9 10 19.8 10 30 C22.87 30 35.74 30 49 30 C49 20.1 49 10.2 49 0 C52.3 0 55.6 0 59 0 C59 22.44 59 44.88 59 68 C55.7 68 52.4 68 49 68 C49 58.43 49 48.86 49 39 C36.13 39 23.26 39 10 39 C10 48.57 10 58.14 10 68 C6.7 68 3.4 68 0 68 C0 45.56 0 23.12 0 0 Z " fill="#070707" transform="translate(533,714)"/>
<path d="M0 0 C-0.66 0.33 -1.32 0.66 -2 1 C-4.90904182 0.01812215 -7.75858248 -1.03033588 -10.625 -2.125 C-49.05323602 -16.10940544 -94.90088918 -17.14736924 -134.69116211 -8.38037109 C-137.16475514 -7.9728573 -139.49749729 -7.93637939 -142 -8 C-142.93037576 -11.950405 -143.13821383 -15.07668773 -142 -19 C-139.89474303 -21.10830807 -138.20113777 -22.54141447 -135.75 -24.125 C-134.90091064 -24.69142212 -134.90091064 -24.69142212 -134.03466797 -25.26928711 C-98.29117121 -46.13662553 -30.91317318 -19.61797529 0 0 Z " fill="#234590" transform="translate(505,502)"/>
<path d="M0 0 C0.36717932 4.85433228 0.67217189 9.70728549 0.92163086 14.5690918 C1.0148939 16.21986387 1.12469813 17.86979162 1.25170898 19.51831055 C2.28969292 33.2106006 2.28969292 33.2106006 -0.74853516 37.42602539 C-3.07403403 39.1936131 -5.45478321 40.57282022 -8 42 C-9.34428524 43.17880503 -10.64891723 44.40464066 -11.90625 45.67578125 C-12.504375 46.27583984 -13.1025 46.87589844 -13.71875 47.49414062 C-14.3065625 48.09419922 -14.894375 48.69425781 -15.5 49.3125 C-16.11875 49.93189453 -16.7375 50.55128906 -17.375 51.18945312 C-20.58009048 54.30408159 -20.58009048 54.30408159 -23 58 C-27.6724864 56.20038807 -30.34050655 52.3998492 -33.48535156 48.7019043 C-36.77759224 44.97328334 -39.73503116 43.02662684 -44.25 40.8125 C-47.00390625 39.01953125 -47.00390625 39.01953125 -49 36 C-50.11404834 27.73105972 -49.01193118 19.23643347 -48 11 C-46.56619399 11.78108073 -45.1342654 12.56560835 -43.703125 13.3515625 C-42.90551758 13.78807129 -42.10791016 14.22458008 -41.28613281 14.67431641 C-39.32634626 15.8107582 -37.56052614 17.02151701 -35.75 18.375 C-33.22277786 20.19443837 -33.22277786 20.19443837 -30.84375 19.953125 C-26.60378269 18.53203705 -23.33857998 15.99907761 -19.75 13.375 C-18.99581787 12.83391602 -18.24163574 12.29283203 -17.46459961 11.73535156 C-12.72951583 8.32041669 -8.07756135 4.81717371 -3.56640625 1.109375 C-2 0 -2 0 0 0 Z " fill="#208DC3" transform="translate(535,436)"/>
<path d="M0 0 C5.28 0 10.56 0 16 0 C16.24886056 11.33551153 16.45050902 22.66919965 16.56993389 34.00682831 C16.62726291 39.27186326 16.70496566 44.53492751 16.82983398 49.79882812 C16.9496652 54.88240288 17.01518699 59.96408707 17.04364967 65.04896545 C17.06392189 66.98525256 17.1035142 68.92143997 17.16303062 70.85691833 C17.61175494 86.05890052 17.61175494 86.05890052 13.58340454 90.91040039 C10.80512133 92.93013757 8.0612227 94.46016572 5 96 C3.98752724 96.98736969 2.98334195 97.98361493 2 99 C1.34 99 0.68 99 0 99 C0 66.33 0 33.66 0 0 Z " fill="#266BA9" transform="translate(363,360)"/>
<path d="M0 0 C0 17.82 0 35.64 0 54 C0.66 54.33 1.32 54.66 2 55 C0.92363281 55.30292969 -0.15273438 55.60585938 -1.26171875 55.91796875 C-2.73706706 56.34083929 -4.21232241 56.76403428 -5.6875 57.1875 C-6.38939453 57.38408203 -7.09128906 57.58066406 -7.81445312 57.78320312 C-14.70257739 59.77310569 -21.3360614 62.36532941 -28 65 C-28.34934324 59.38133222 -28.60148637 53.76911902 -28.76904297 48.14208984 C-28.83893492 46.23439374 -28.93410414 44.32743376 -29.05615234 42.42236328 C-30.01494475 27.0575135 -30.01494475 27.0575135 -26.68945312 22.01135254 C-23.43914284 18.4639892 -19.66253089 15.76417429 -15.65655518 13.13195801 C-13.55727394 11.69747623 -11.82696933 10.0431027 -10.078125 8.203125 C-9.59085938 7.70039063 -9.10359375 7.19765625 -8.6015625 6.6796875 C-8.15554688 6.20789063 -7.70953125 5.73609375 -7.25 5.25 C-2.26119403 0 -2.26119403 0 0 0 Z " fill="#27AFCA" transform="translate(586,392)"/>
<path d="M0 0 C7.26 0 14.52 0 22 0 C22.72004128 7.60043569 23.1508192 14.45574077 22 22 C21.24332031 22.05027344 20.48664063 22.10054688 19.70703125 22.15234375 C16.78549073 22.76978627 16.78549073 22.76978627 15.19921875 25.50390625 C14.70035156 26.51324219 14.20148438 27.52257812 13.6875 28.5625 C12.91986328 30.08037109 12.91986328 30.08037109 12.13671875 31.62890625 C11.76160156 32.41136719 11.38648438 33.19382812 11 34 C11.99 34 12.98 34 14 34 C14 38.62 14 43.24 14 48 C9.545 48.495 9.545 48.495 5 49 C-6.26699908 75.70518505 -9.25385516 104.30218058 -11 133 C-11.33 133 -11.66 133 -12 133 C-12.47312834 103.03035282 -11.91932776 74.23208308 -1.8046875 45.65234375 C-0.81491901 42.38995151 -0.530771 39.27068483 -0.26953125 35.88671875 C0.12562129 33.12065097 1.43813523 31.28272543 3 29 C4.07338706 26.69294636 5.03078549 24.35380666 6 22 C4.02 22 2.04 22 0 22 C0 14.74 0 7.48 0 0 Z " fill="#2AABBC" transform="translate(289,336)"/>
<path d="M0 0 C18.81 0 37.62 0 57 0 C57 2.64 57 5.28 57 8 C49.08 8 41.16 8 33 8 C33 27.8 33 47.6 33 68 C29.7 68 26.4 68 23 68 C23 48.53 23 29.06 23 9 C15.41 9 7.82 9 0 9 C0 6.03 0 3.06 0 0 Z " fill="#080808" transform="translate(462,714)"/>
<path d="M0 0 C3.465 -0.061875 6.93 -0.12375 10.5 -0.1875 C12.11358398 -0.22846802 12.11358398 -0.22846802 13.75976562 -0.27026367 C20.1344833 -0.32495452 26.61754337 -0.15695952 31.55639648 4.45263672 C34.28945483 7.63838654 35.89537842 9.9537842 36.3125 14.125 C35.94245557 18.71355096 35.07267347 22.48526738 32 26 C25.65912044 30.7226772 19.11215955 30.48489187 11.5 30.25 C7.705 30.1675 3.91 30.085 0 30 C0 20.1 0 10.2 0 0 Z " fill="#F7F7F7" transform="translate(330,722)"/>
<path d="M0 0 C4.00125 -0.0825 8.0025 -0.165 12.125 -0.25 C13.37555176 -0.28641602 14.62610352 -0.32283203 15.91455078 -0.36035156 C22.25038635 -0.42363847 26.28393639 -0.42227604 31 4 C34.09333444 7.15219281 34.43194692 9.51027554 34.4375 13.875 C34.29279297 19.04041198 33.72485594 22.17712153 30 26 C24.25045893 29.97172245 18.32007423 29.34009044 11.625 29.1875 C7.78875 29.125625 3.9525 29.06375 0 29 C0 19.43 0 9.86 0 0 Z " fill="#FBFCFB" transform="translate(259,723)"/>
<path d="M0 0 C3.81738451 0.41269022 6.25372263 1.29742326 9 4 C9.45410156 6.72729492 9.45410156 6.72729492 9.390625 9.98046875 C9.37128906 11.72553711 9.37128906 11.72553711 9.3515625 13.50585938 C9.31804687 14.72080078 9.28453125 15.93574219 9.25 17.1875 C9.23195313 18.41404297 9.21390625 19.64058594 9.1953125 20.90429688 C9.14811124 23.93697759 9.08227677 26.96810087 9 30 C4.32630929 28.47824478 -0.29748617 26.95243841 -4.8125 25 C-10.39201558 22.71547393 -16.13084663 21.33114819 -22 20 C-21.01 19.67 -20.02 19.34 -19 19 C-19.18433594 17.96617187 -19.36867188 16.93234375 -19.55859375 15.8671875 C-19 12 -19 12 -17.32861328 10.40722656 C-14.96001867 8.85512057 -12.55382101 7.47125346 -10.0625 6.125 C-8.38658196 5.16951072 -6.71079372 4.21379372 -5.03515625 3.2578125 C-4.2862915 2.8467627 -3.53742676 2.43571289 -2.76586914 2.01220703 C-1.03538419 1.12265931 -1.03538419 1.12265931 0 0 Z " fill="#1B9CC6" transform="translate(454,427)"/>
<path d="M0 0 C7.59 0 15.18 0 23 0 C23 7.59 23 15.18 23 23 C17.5859375 23.0309375 17.5859375 23.0309375 12.0625 23.0625 C10.92304932 23.071604 9.78359863 23.08070801 8.60961914 23.09008789 C7.71879639 23.09258545 6.82797363 23.09508301 5.91015625 23.09765625 C4.53549194 23.10551147 4.53549194 23.10551147 3.13305664 23.11352539 C1 23 1 23 0 22 C-0.08700342 20.36527118 -0.10701063 18.72685945 -0.09765625 17.08984375 C-0.09515869 16.199021 -0.09266113 15.30819824 -0.09008789 14.39038086 C-0.08098389 13.25093018 -0.07187988 12.11147949 -0.0625 10.9375 C-0.041875 7.328125 -0.02125 3.71875 0 0 Z " fill="#E88F3A" transform="translate(713,523)"/>
<path d="M0 0 C2.62282543 3.20211168 4.25019764 6.48171347 5.91796875 10.26171875 C6.44970703 11.46248047 6.98144531 12.66324219 7.52929688 13.90039062 C7.8012085 14.52147705 8.07312012 15.14256348 8.35327148 15.7824707 C9.19035485 17.69401928 10.03494535 19.60211069 10.88085938 21.50976562 C15 30.84950206 15 30.84950206 15 32 C5.76 32 -3.48 32 -13 32 C-12.13565849 27.67829246 -11.0639396 24.57359216 -9.27734375 20.60546875 C-8.73916016 19.40341797 -8.20097656 18.20136719 -7.64648438 16.96289062 C-7.07693432 15.70437666 -6.50727145 14.44591375 -5.9375 13.1875 C-5.36346104 11.90971681 -4.78988839 10.63172403 -4.21679688 9.35351562 C-2.8157713 6.23358473 -1.41002202 3.11587282 0 0 Z " fill="#F6F7F6" transform="translate(423,725)"/>
<path d="M0 0 C0.85813901 3.80032989 1.21191128 5.38571591 0 9 C-3.70813811 12.45018068 -7.81519996 15.04679699 -12.08837891 17.74169922 C-15.99205115 20.31124287 -19.55393482 23.34735265 -23.18359375 26.28515625 C-26.67177689 28.4090292 -28.90793008 29.02233663 -33 29 C-35.58528728 27.62702258 -37.55228553 26.39730353 -39.8125 24.625 C-40.9436323 23.78334576 -42.07512669 22.94217787 -43.20703125 22.1015625 C-44.12871094 21.40804688 -45.05039062 20.71453125 -46 20 C-46.66 19.67 -47.32 19.34 -48 19 C-48 16.36 -48 13.72 -48 11 C-39.29909557 15.71782373 -39.29909557 15.71782373 -35.75 18.375 C-33.22277786 20.19443837 -33.22277786 20.19443837 -30.84375 19.953125 C-26.60378269 18.53203705 -23.33857998 15.99907761 -19.75 13.375 C-18.99581787 12.83391602 -18.24163574 12.29283203 -17.46459961 11.73535156 C-12.72951583 8.32041669 -8.07756135 4.81717371 -3.56640625 1.109375 C-2 0 -2 0 0 0 Z " fill="#157C9E" transform="translate(535,436)"/>
<path d="M0 0 C0.33 0 0.66 0 1 0 C3.11366358 11.54570674 3.31794046 22.80086102 3.25 34.5 C3.24723053 35.42831635 3.24446106 36.35663269 3.24160767 37.31307983 C3.17812712 55.42769376 2.96786964 73.44686062 -2 91 C-2.33 91 -2.66 91 -3 91 C-3 88.03 -3 85.06 -3 82 C-4.65 82 -6.3 82 -8 82 C-7.85900879 81.27635254 -7.71801758 80.55270508 -7.57275391 79.80712891 C-6.91616069 76.41446175 -6.27058809 73.01977784 -5.625 69.625 C-5.40328125 68.48804688 -5.1815625 67.35109375 -4.953125 66.1796875 C-1.884794 49.93558222 -0.68960443 33.87862426 -0.375 17.375 C-0.33666156 15.67446269 -0.29760181 13.97394148 -0.2578125 12.2734375 C-0.16361247 8.18242825 -0.07898816 4.09133005 0 0 Z " fill="#41D0CC" transform="translate(738,413)"/>
<path d="M0 0 C0.33 0 0.66 0 1 0 C1 1.65 1 3.3 1 5 C2.32 5 3.64 5 5 5 C4.37990979 9.49735756 3.2193276 13.48174971 1.6875 17.75 C-6.18142801 40.74251282 -9.35947476 65.78814587 -10 90 C-10.33 90 -10.66 90 -11 90 C-11.4888345 59.03546794 -10.67212096 29.46186584 0 0 Z " fill="#43C9C5" transform="translate(288,379)"/>
<path d="M0 0 C0.83713598 3.57333045 0.92075961 6.43146016 0 10 C-3.50073078 14.28465511 -7.67947258 17.57561906 -12 21 C-13.04973105 21.87157157 -14.09670996 22.74647074 -15.140625 23.625 C-18.67621793 26.5744786 -22.16760714 29.44507142 -26 32 C-26.7139493 28.14178913 -26.8757134 24.84313079 -26 21 C-23.65504779 18.32521829 -21.12953576 16.47667703 -18.234375 14.4140625 C-13.98613209 11.38738394 -10.52858309 7.6020358 -6.97363281 3.80883789 C-3.31169396 0 -3.31169396 0 0 0 Z " fill="#148FA0" transform="translate(585,394)"/>
<path d="M0 0 C2.71634682 3.34766902 4.61512692 6.99179844 6.5625 10.8125 C15.62256889 28.13666273 27.6513718 42.81453119 41 57 C41.61617188 57.65871094 42.23234375 58.31742188 42.8671875 58.99609375 C50.58802095 66.9939906 59.64249038 73.57255142 68.56640625 80.15234375 C71 82 71 82 73 84 C72.01 84.99 71.02 85.98 70 87 C61.19780801 80.45514435 52.91486951 73.5949691 45 66 C44.04996094 65.09121094 43.09992188 64.18242188 42.12109375 63.24609375 C26.56585766 48.03701034 14.06359387 30.24010799 4 11 C3.62488281 10.29504395 3.24976563 9.59008789 2.86328125 8.86376953 C2.49589844 8.15720215 2.12851562 7.45063477 1.75 6.72265625 C1.41484375 6.08207275 1.0796875 5.44148926 0.734375 4.78149414 C0 3 0 3 0 0 Z " fill="#23A0CB" transform="translate(324,541)"/>
<path d="M0 0 C0.33 0 0.66 0 1 0 C2.17484118 6.056959 2.98933758 11.87129614 -0.43994141 17.26464844 C-9.90827657 28.95413828 -9.90827657 28.95413828 -16 32 C-16.91222937 26.91516592 -17.59306723 21.73197056 -14.88671875 17.09082031 C-12.04248299 13.28871176 -8.79004593 9.88367773 -5.45117188 6.515625 C-3.48520995 4.46234579 -1.7725639 2.21984638 0 0 Z " fill="#2E933B" transform="translate(623,349)"/>
<path d="M0 0 C3.75907591 0.40638658 6.48062675 1.10738627 9 4 C9.34290155 6.75409818 9.1831821 9.20647293 9 12 C7.35 10.68 5.7 9.36 4 8 C-0.50505453 9.58192755 -4.27229941 11.91697036 -8.25 14.5 C-9.20519531 15.10521484 -9.20519531 15.10521484 -10.1796875 15.72265625 C-13.64948827 17.81837881 -13.64948827 17.81837881 -16 21 C-17.98 20.67 -19.96 20.34 -22 20 C-21.01 19.67 -20.02 19.34 -19 19 C-19.18433594 17.96617187 -19.36867188 16.93234375 -19.55859375 15.8671875 C-19 12 -19 12 -17.32861328 10.40722656 C-14.96001867 8.85512057 -12.55382101 7.47125346 -10.0625 6.125 C-8.38658196 5.16951072 -6.71079372 4.21379372 -5.03515625 3.2578125 C-4.2862915 2.8467627 -3.53742676 2.43571289 -2.76586914 2.01220703 C-1.03538419 1.12265931 -1.03538419 1.12265931 0 0 Z " fill="#1489A4" transform="translate(454,427)"/>
<path d="M0 0 C4.62 0 9.24 0 14 0 C14.87890625 10.83984375 14.87890625 10.83984375 15 14 C14 15 14 15 10.83984375 15.09765625 C8.90818359 15.08025391 8.90818359 15.08025391 6.9375 15.0625 C5.64714844 15.05347656 4.35679687 15.04445312 3.02734375 15.03515625 C2.02832031 15.02355469 1.02929688 15.01195312 0 15 C0 11.37 0 7.74 0 4 C-0.66 3.67 -1.32 3.34 -2 3 C-1.34 3 -0.68 3 0 3 C0 2.01 0 1.02 0 0 Z " fill="#2BB3BA" transform="translate(561,222)"/>
<path d="M0 0 C4.62 0 9.24 0 14 0 C14 4.95 14 9.9 14 15 C9.38 15 4.76 15 0 15 C0 10.05 0 5.1 0 0 Z " fill="#31B788" transform="translate(685,540)"/>
<path d="M0 0 C0.680625 0.309375 1.36125 0.61875 2.0625 0.9375 C-5.48637601 7.18825154 -13.58499008 13.84742081 -23.8125 12.9375 C-25.52924653 12.65062852 -27.2428938 12.33477032 -28.9375 11.9375 C-28.9375 11.2775 -28.9375 10.6175 -28.9375 9.9375 C-26.1093356 7.60909496 -22.95720671 5.72379339 -19.875 3.75 C-19.02744141 3.17830078 -18.17988281 2.60660156 -17.30664062 2.01757812 C-10.85665473 -2.12137036 -7.33402699 -2.65273317 0 0 Z " fill="#258B3C" transform="translate(434.9375,447.0625)"/>
<path d="M0 0 C4.62 0 9.24 0 14 0 C14 4.62 14 9.24 14 14 C9.38 14 4.76 14 0 14 C0 9.38 0 4.76 0 0 Z " fill="#F29733" transform="translate(741,509)"/>
<path d="M0 0 C4.62 0 9.24 0 14 0 C14 4.62 14 9.24 14 14 C9.38 14 4.76 14 0 14 C0 9.38 0 4.76 0 0 Z " fill="#E98F34" transform="translate(293,409)"/>
<path d="M0 0 C4.62 0 9.24 0 14 0 C14 4.62 14 9.24 14 14 C9.38 14 4.76 14 0 14 C0 9.38 0 4.76 0 0 Z " fill="#41D1AE" transform="translate(579,206)"/>
<path d="M0 0 C4.62 0 9.24 0 14 0 C14 4.29 14 8.58 14 13 C9.38 13 4.76 13 0 13 C0 8.71 0 4.42 0 0 Z " fill="#EE9932" transform="translate(721,496)"/>
<path d="M0 0 C4.29 0 8.58 0 13 0 C13 4.62 13 9.24 13 14 C8.71 14 4.42 14 0 14 C0 9.38 0 4.76 0 0 Z " fill="#299AC3" transform="translate(270,359)"/>
<path d="M0 0 C0 4.62 0 9.24 0 14 C-10.17857143 15.20535714 -10.17857143 15.20535714 -14 14 C-13.50866529 6.07087429 -13.50866529 6.07087429 -11.8125 2.5 C-8.34196436 -0.37216743 -4.33197892 0 0 0 Z " fill="#26A0C7" transform="translate(303,370)"/>
<path d="M0 0 C0.33 0 0.66 0 1 0 C1 13.53 1 27.06 1 41 C7.0189435 36.34372228 7.0189435 36.34372228 12.9375 31.5625 C15 30 15 30 17 30 C17.49609375 33.09765625 17.49609375 33.09765625 17 37 C14.70242389 39.63627769 11.94622958 41.48479612 9.0625 43.4375 C8.30775391 43.97826172 7.55300781 44.51902344 6.77539062 45.07617188 C1.24433075 49 1.24433075 49 0 49 C0 32.83 0 16.66 0 0 Z " fill="#34A54E" transform="translate(398,382)"/>
<path d="M0 0 C6.62469377 1.99877843 12.71163449 4.6180417 18.875 7.75 C19.74761475 8.18957031 20.62022949 8.62914062 21.51928711 9.08203125 C27.94638978 12.36222649 34.05322261 15.90358974 40 20 C40.99 20.66 41.98 21.32 43 22 C41.02 22.99 41.02 22.99 39 24 C39 23.34 39 22.68 39 22 C37.98679687 21.61908203 37.98679687 21.61908203 36.953125 21.23046875 C34.13812938 20.05755391 31.44375239 18.73067785 28.73388672 17.33447266 C17.85682523 11.7313002 6.66204547 6.74202705 -5 3 C-5 2.67 -5 2.34 -5 2 C-3.35 2 -1.7 2 0 2 C0 1.34 0 0.68 0 0 Z " fill="#3DD0B3" transform="translate(573,249)"/>
<path d="M0 0 C5.28 0.33 10.56 0.66 16 1 C14.94535639 6.27321807 13.58768659 9.98325165 10 14 C7.69011685 14.74386068 5.35684056 15.42190703 3 16 C1.48207356 18.49641128 1.48207356 18.49641128 1 21 C0.67 21 0.34 21 0 21 C-0.28170706 15.45976122 -0.21992758 12.6510065 3 8 C4.07559732 5.69376431 5.03069964 3.35401517 6 1 C4.02 1 2.04 1 0 1 C0 0.67 0 0.34 0 0 Z " fill="#42CFC8" transform="translate(289,357)"/>
<path d="M0 0 C3.3 0 6.6 0 10 0 C9.01 4.29 8.02 8.58 7 13 C3.37 13 -0.26 13 -4 13 C-3.40895235 8.15340923 -2.02055843 4.39251833 0 0 Z " fill="#39CBCE" transform="translate(724,510)"/>
<path d="M0 0 C0.74500538 5.98239324 0.74500538 5.98239324 -1.15429688 8.57666016 C-2.78712048 10.09778051 -4.47263945 11.46330446 -6.25 12.8125 C-7.12978516 13.52696289 -7.12978516 13.52696289 -8.02734375 14.25585938 C-10.87776979 16.53299748 -13.6234727 18.55411083 -17 20 C-17.57643537 16.77196193 -17.86771718 15.09222851 -17 12 C-14.01115533 8.83467117 -10.56386865 6.4764985 -7 4 C-6.10667969 3.26265625 -5.21335937 2.5253125 -4.29296875 1.765625 C-2 0 -2 0 0 0 Z " fill="#2DA147" transform="translate(519,395)"/>
<path d="M0 0 C0.66 0.66 1.32 1.32 2 2 C-2.79031507 6.38579957 -7.45889287 10.59008792 -13 14 C-13 10.04 -13 6.08 -13 2 C-8.51023509 0.24789662 -4.81989758 -0.37076135 0 0 Z " fill="#32D0C7" transform="translate(449,388)"/>
<path d="M0 0 C5.56890517 0.47986031 10.67067568 1.29915181 16 3 C16 6.3 16 9.6 16 13 C10.3879285 9.97811534 4.96549138 7.01465261 0 3 C0 2.01 0 1.02 0 0 Z " fill="#2BBECB" transform="translate(486,402)"/>
<path d="M0 0 C3.3 0 6.6 0 10 0 C10 3.3 10 6.6 10 10 C6.7 10 3.4 10 0 10 C0 6.7 0 3.4 0 0 Z " fill="#FC9D33" transform="translate(427,660)"/>
<path d="M0 0 C0.66 0.33 1.32 0.66 2 1 C-4.65340174 7.3013699 -11.8099233 12.6809294 -19.34912109 17.85742188 C-20.46290336 18.62827384 -21.56475785 19.41661099 -22.65478516 20.22070312 C-24.23828125 21.359375 -24.23828125 21.359375 -27 23 C-27.99 22.67 -28.98 22.34 -30 22 C-28.54872815 18.24423603 -26.95420338 17.16222187 -23.375 15.4375 C-18.09179256 12.71158978 -13.25062107 9.57010531 -8.375 6.1875 C-7.6639209 5.69499756 -6.9528418 5.20249512 -6.22021484 4.69506836 C-2.96588855 2.52595126 -2.96588855 2.52595126 0 0 Z " fill="#2973B2" transform="translate(660,622)"/>
<path d="M0 0 C3.94990111 4.96821969 3.44917727 8.80135372 3 15 C2.55303185 18.62540832 2.03717341 22.23673257 1.51171875 25.8515625 C0.52882864 33.18832696 0.32164368 40.61065962 0 48 C-0.33 48 -0.66 48 -1 48 C-1.02496148 42.93205106 -1.0429822 37.86413894 -1.05493164 32.79614258 C-1.05992009 31.07673518 -1.06671324 29.35733194 -1.07543945 27.63793945 C-1.12122492 18.37580797 -1.15167056 9.20946928 0 0 Z " fill="#41C0CE" transform="translate(278,421)"/>
<path d="M0 0 C0.66 0.33 1.32 0.66 2 1 C-4.48174206 5.73217158 -11.17834686 10.11480805 -17.9375 14.4375 C-18.77837158 14.98180664 -19.61924316 15.52611328 -20.4855957 16.08691406 C-21.28312256 16.59319336 -22.08064941 17.09947266 -22.90234375 17.62109375 C-23.61898193 18.0792749 -24.33562012 18.53745605 -25.07397461 19.00952148 C-27 20 -27 20 -30 20 C-23.81110218 14.72294606 -17.61574088 9.45291753 -11.3125 4.3125 C-10.52488281 3.66925781 -9.73726563 3.02601563 -8.92578125 2.36328125 C-7 1 -7 1 -5 1 C-5 1.66 -5 2.32 -5 3 C-4.34 3 -3.68 3 -3 3 C-3 2.34 -3 1.68 -3 1 C-2.01 0.67 -1.02 0.34 0 0 Z " fill="#E7702A" transform="translate(375,464)"/>
<path d="M0 0 C0.66 0.33 1.32 0.66 2 1 C1 4 1 4 -1.0625 5.1875 C-1.701875 5.455625 -2.34125 5.72375 -3 6 C-2.41992188 5.79503906 -1.83984375 5.59007812 -1.2421875 5.37890625 C3.1621984 3.85990187 7.35677777 2.5952849 12 2 C11.67 2.99 11.34 3.98 11 5 C8.27409682 6.05874795 5.68082307 6.91097204 2.875 7.6875 C2.12734375 7.91244141 1.3796875 8.13738281 0.609375 8.36914062 C-5.75950572 10.19436864 -11.49484007 10.57700847 -18 9 C-17.01 8.67 -16.02 8.34 -15 8 C-15.66 6.35 -16.32 4.7 -17 3 C-16.2575 3.45375 -15.515 3.9075 -14.75 4.375 C-12.55125206 5.67426015 -10.28430636 6.85784682 -8 8 C-5.36 5.36 -2.72 2.72 0 0 Z " fill="#E1E5EB" transform="translate(520,496)"/>
<path d="M0 0 C2.97 0 5.94 0 9 0 C9 3.3 9 6.6 9 10 C6.03 10 3.06 10 0 10 C0 6.7 0 3.4 0 0 Z " fill="#32A6D4" transform="translate(292,569)"/>
<path d="M0 0 C2.97 0 5.94 0 9 0 C9 3.3 9 6.6 9 10 C6.03 10 3.06 10 0 10 C0 6.7 0 3.4 0 0 Z " fill="#DD9B3B" transform="translate(702,503)"/>
<path d="M0 0 C2.97 0 5.94 0 9 0 C9 3.3 9 6.6 9 10 C6.03 10 3.06 10 0 10 C0 6.7 0 3.4 0 0 Z " fill="#27B2C8" transform="translate(320,339)"/>
<path d="M0 0 C0.33 0 0.66 0 1 0 C1.19390729 2.31197155 1.37996367 4.6246029 1.5625 6.9375 C1.66691406 8.22527344 1.77132812 9.51304687 1.87890625 10.83984375 C1.91886719 11.88269531 1.95882812 12.92554688 2 14 C1.67 14.33 1.34 14.66 1 15 C0.90080923 16.60163916 0.87030102 18.20779918 0.875 19.8125 C0.87242187 20.68519531 0.86984375 21.55789063 0.8671875 22.45703125 C0.99145891 24.83646322 1.13199902 26.78011244 2 29 C2.99 29.33 3.98 29.66 5 30 C6.62828573 32.05494884 8.10675893 34.0794497 9.5625 36.25 C10.16094727 37.11044922 10.16094727 37.11044922 10.77148438 37.98828125 C12.96957932 41.21019672 14.71827344 44.31417011 16 48 C11.1268851 43.43145478 7.1207108 38.24305151 3 33 C2.26523437 32.20464844 1.53046875 31.40929687 0.7734375 30.58984375 C-1.46019296 27.32795609 -1.44395762 25.48356351 -1.3125 21.5625 C-1.27769531 20.34433594 -1.24289062 19.12617188 -1.20703125 17.87109375 C-0.88803045 11.90638075 -0.50657733 5.95228367 0 0 Z " fill="#4ABFBC" transform="translate(664,286)"/>
<path d="M0 0 C2.97 0 5.94 0 9 0 C9 2.97 9 5.94 9 9 C6.03 9 3.06 9 0 9 C0 6.03 0 3.06 0 0 Z " fill="#F68534" transform="translate(414,672)"/>
<path d="M0 0 C0.99 0.33 1.98 0.66 3 1 C2.49210937 1.4125 1.98421875 1.825 1.4609375 2.25 C-3.47174514 6.38828057 -7.36104788 10.69319483 -11 16 C-10.67 16.66 -10.34 17.32 -10 18 C-10.969375 18.268125 -11.93875 18.53625 -12.9375 18.8125 C-13.948125 19.204375 -14.95875 19.59625 -16 20 C-16.33 20.99 -16.66 21.98 -17 23 C-19.5625 24.6875 -19.5625 24.6875 -22 26 C-20.13058051 15.92712795 -7.04193778 6.95403564 0 0 Z " fill="#1C347E" transform="translate(353,298)"/>
<path d="M0 0 C0.33 0 0.66 0 1 0 C2.56159874 9.17439261 4.14200405 18.69205299 3 28 C2.01 29.32 1.02 30.64 0 32 C0 21.44 0 10.88 0 0 Z " fill="#53CFCB" transform="translate(738,413)"/>
<path d="M0 0 C0.99 0.33 1.98 0.66 3 1 C1.68 7.27 0.36 13.54 -1 20 C-1.99 19.34 -2.98 18.68 -4 18 C-5.20628634 11.5145896 -3.61124638 5.41686957 0 0 Z " fill="#35C6C4" transform="translate(283,408)"/>
<path d="M0 0 C2.64 0 5.28 0 8 0 C8 2.64 8 5.28 8 8 C5.36 8 2.72 8 0 8 C0 5.36 0 2.72 0 0 Z " fill="#3EC85F" transform="translate(707,310)"/>
<path d="M0 0 C0 0.99 0 1.98 0 3 C-1.9719886 4.55113737 -3.89529564 5.90309302 -6 7.25 C-11.36898121 10.8095253 -16.29526632 14.57954026 -21 19 C-21 16 -21 16 -18.83984375 13.6953125 C-17.88207031 12.84710938 -16.92429687 11.99890625 -15.9375 11.125 C-15.43669922 10.68099854 -14.93589844 10.23699707 -14.41992188 9.77954102 C-5.26636877 1.75545626 -5.26636877 1.75545626 0 0 Z " fill="#25B69D" transform="translate(371,266)"/>
<path d="M0 0 C6.85618326 1.92556636 13.43252132 4.2472483 20 7 C20 7.33 20 7.66 20 8 C6.69596691 6.92709411 6.69596691 6.92709411 1 4 C0.21875 1.89453125 0.21875 1.89453125 0 0 Z " fill="#EDEFF4" transform="translate(485,496)"/>
<path d="M0 0 C0.99 0 1.98 0 3 0 C1.65070536 3.83663072 -0.07751025 6.65172569 -2.625 9.8125 C-3.25664063 10.60269531 -3.88828125 11.39289063 -4.5390625 12.20703125 C-5.02117188 12.79871094 -5.50328125 13.39039063 -6 14 C-6.66 13.67 -7.32 13.34 -8 13 C-6.46462766 8.08680853 -3.58639157 3.67764836 0 0 Z " fill="#60C34E" transform="translate(588,320)"/>
<path d="M0 0 C0 3.51716303 -0.82445585 4.37121748 -3 7 C-2.01 7.33 -1.02 7.66 0 8 C-1.78710586 8.86366822 -3.5798465 9.71568594 -5.375 10.5625 C-6.37273438 11.03816406 -7.37046875 11.51382813 -8.3984375 12.00390625 C-9.25695312 12.33261719 -10.11546875 12.66132812 -11 13 C-11.66 12.67 -12.32 12.34 -13 12 C-11.3989569 10.3719224 -9.79405264 8.74764115 -8.1875 7.125 C-7.29417969 6.22007812 -6.40085937 5.31515625 -5.48046875 4.3828125 C-3 2 -3 2 0 0 Z " fill="#F7AA34" transform="translate(624,726)"/>
<path d="M0 0 C-0.495 0.474375 -0.99 0.94875 -1.5 1.4375 C-3.11542197 2.75923698 -3.11542197 2.75923698 -3 4 C-6.3 4.33 -9.6 4.66 -13 5 C-13.66 3.68 -14.32 2.36 -15 1 C-13.25215171 0.63536268 -11.50159498 0.2836922 -9.75 -0.0625 C-8.28820312 -0.35833984 -8.28820312 -0.35833984 -6.796875 -0.66015625 C-4.131881 -0.98397535 -2.51128277 -0.85503199 0 0 Z " fill="#3C569A" transform="translate(548,499)"/>
<path d="M0 0 C6.93 0 13.86 0 21 0 C19 2 19 2 15.6640625 2.01953125 C13.63446942 1.92928255 11.61177309 1.81149911 9.5859375 1.65820312 C7.32648435 1.52069819 7.32648435 1.52069819 4 2 C1.48899514 4.35659419 1.48899514 4.35659419 0 7 C0 4.69 0 2.38 0 0 Z " fill="#F6A52E" transform="translate(714,524)"/>
<path d="M0 0 C3.69876091 1.37287342 6.9514476 3.06355453 10.3125 5.125 C11.19550781 5.66382813 12.07851563 6.20265625 12.98828125 6.7578125 C13.65214844 7.16773438 14.31601562 7.57765625 15 8 C13 9 13 9 9.7421875 8.00390625 C8.4502948 7.53110016 7.16131362 7.05028031 5.875 6.5625 C5.21628906 6.31951172 4.55757813 6.07652344 3.87890625 5.82617188 C2.25008662 5.22421679 0.62470425 4.61297588 -1 4 C-0.67 2.68 -0.34 1.36 0 0 Z " fill="#405F9A" transform="translate(490,494)"/>
<path d="M0 0 C0 3 0 3 -2.40625 5.69921875 C-3.4299968 6.70302243 -4.4616054 7.69885649 -5.5 8.6875 C-6.02464844 9.19861328 -6.54929687 9.70972656 -7.08984375 10.23632812 C-8.38660904 11.49772708 -9.69246117 12.74977212 -11 14 C-11.66 13.34 -12.32 12.68 -13 12 C-11.58653438 10.55935235 -10.16908789 9.12260985 -8.75 7.6875 C-7.96109375 6.88699219 -7.1721875 6.08648437 -6.359375 5.26171875 C-4.32605933 3.31256349 -2.29398922 1.62578594 0 0 Z " fill="#56C35F" transform="translate(525,342)"/>
<path d="M0 0 C0.66 0.33 1.32 0.66 2 1 C0.70019417 4.89941749 -0.93254102 5.53257489 -4.375 7.6875 C-5.35210937 8.31011719 -6.32921875 8.93273437 -7.3359375 9.57421875 C-10 11 -10 11 -13 11 C-8.71 7.37 -4.42 3.74 0 0 Z " fill="#ED894F" transform="translate(358,473)"/>
<path d="M0 0 C0.66 0 1.32 0 2 0 C0.40956621 5.08938811 -2.7446951 8.87456643 -6 13 C-6.66 12.01 -7.32 11.02 -8 10 C-6.71580959 8.32756598 -5.42242815 6.66218553 -4.125 5 C-3.04605469 3.6078125 -3.04605469 3.6078125 -1.9453125 2.1875 C-1.30335938 1.465625 -0.66140625 0.74375 0 0 Z " fill="#22377E" transform="translate(353,333)"/>
<path d="M0 0 C5.75 1.875 5.75 1.875 8 3 C8.625 5.0625 8.625 5.0625 9 7 C7.53932801 6.54917531 6.08151968 6.08906463 4.625 5.625 C3.81289063 5.36976563 3.00078125 5.11453125 2.1640625 4.8515625 C0 4 0 4 -2 2 C-1.34 2 -0.68 2 0 2 C0 1.34 0 0.68 0 0 Z " fill="#39C7AC" transform="translate(584,254)"/>
<path d="M0 0 C0.33 1.32 0.66 2.64 1 4 C2.65 4 4.3 4 6 4 C4.68 4.33 3.36 4.66 2 5 C2 9.95 2 14.9 2 20 C1.67 20 1.34 20 1 20 C0.67 15.38 0.34 10.76 0 6 C-0.66 6 -1.32 6 -2 6 C-1.34 4.02 -0.68 2.04 0 0 Z " fill="#276C9C" transform="translate(683,535)"/>
<path d="M0 0 C3.63 0 7.26 0 11 0 C11 0.33 11 0.66 11 1 C9.35 1 7.7 1 6 1 C5.67 1.99 5.34 2.98 5 4 C2.4375 5.6875 2.4375 5.6875 0 7 C0.33 5.68 0.66 4.36 1 3 C0.34 3 -0.32 3 -1 3 C-0.67 2.01 -0.34 1.02 0 0 Z " fill="#39D6CA" transform="translate(437,389)"/>
<path d="M0 0 C2.64 0.66 5.28 1.32 8 2 C8 2.33 8 2.66 8 3 C5.36 3 2.72 3 0 3 C-0.0825 3.61875 -0.165 4.2375 -0.25 4.875 C-1 7 -1 7 -3.0625 8.25 C-3.701875 8.4975 -4.34125 8.745 -5 9 C-4.42647107 5.12867972 -2.51295648 2.91827204 0 0 Z " fill="#1E307F" transform="translate(320,336)"/>
<path d="M0 0 C2.62901288 1.52206009 4.84365964 2.84365964 7 5 C8.31747324 5.69748583 9.64914193 6.36959957 11 7 C6.83861737 7.08159574 3.0527516 6.98248524 -1 6 C-0.01 5.67 0.98 5.34 2 5 C1.34 3.35 0.68 1.7 0 0 Z " fill="#C8D3DE" transform="translate(503,499)"/>
<path d="M0 0 C-1.69179328 2.04219706 -2.63727666 2.91793306 -5.26171875 3.51171875 C-6.06222656 3.56972656 -6.86273437 3.62773437 -7.6875 3.6875 C-8.49574219 3.75324219 -9.30398438 3.81898438 -10.13671875 3.88671875 C-11.05904297 3.94279297 -11.05904297 3.94279297 -12 4 C-10.720327 1.44065399 -9.75798964 1.3010767 -7.125 0.3125 C-6.07699219 -0.09548828 -6.07699219 -0.09548828 -5.0078125 -0.51171875 C-3 -1 -3 -1 0 0 Z " fill="#EAEDF3" transform="translate(532,499)"/>
<path d="M0 0 C0.66 0.33 1.32 0.66 2 1 C-0.31 2.65 -2.62 4.3 -5 6 C-6.32 5.34 -7.64 4.68 -9 4 C-8.34 3.01 -7.68 2.02 -7 1 C-6.34 1 -5.68 1 -5 1 C-5 1.66 -5 2.32 -5 3 C-4.34 3 -3.68 3 -3 3 C-3 2.34 -3 1.68 -3 1 C-2.01 0.67 -1.02 0.34 0 0 Z " fill="#E77937" transform="translate(375,464)"/>
<path d="M0 0 C0.66 0.33 1.32 0.66 2 1 C0.61122646 4.35620271 -0.91677965 6.07298728 -4 8 C-4.66 8 -5.32 8 -6 8 C-5.8125 5.6875 -5.8125 5.6875 -5 3 C-2.5625 1.125 -2.5625 1.125 0 0 Z " fill="#203378" transform="translate(385,299)"/>
<path d="M0 0 C2.95409701 1.37154504 5.44008376 2.98863724 8 5 C7.67 5.66 7.34 6.32 7 7 C4.03 6.01 1.06 5.02 -2 4 C-1.34 2.68 -0.68 1.36 0 0 Z " fill="#F3A83D" transform="translate(665,732)"/>
<path d="M0 0 C8.56097561 4.12195122 8.56097561 4.12195122 10 7 C9.34 7.66 8.68 8.32 8 9 C6.66368764 7.6905332 5.33102075 6.37734515 4 5.0625 C3.2575 4.33160156 2.515 3.60070312 1.75 2.84765625 C0 1 0 1 0 0 Z " fill="#266BAB" transform="translate(345,612)"/>
<path d="M0 0 C2.64 0.33 5.28 0.66 8 1 C3.75734896 3.12132552 1.67614835 4.11647866 -3.125 3.5625 C-4.03507812 3.46066406 -4.94515625 3.35882813 -5.8828125 3.25390625 C-6.58148438 3.17011719 -7.28015625 3.08632813 -8 3 C-8 2.67 -8 2.34 -8 2 C-5.36 2 -2.72 2 0 2 C0 1.34 0 0.68 0 0 Z " fill="#4863A2" transform="translate(484,500)"/>
<path d="M0 0 C0.99 0.33 1.98 0.66 3 1 C0.03 3.64 -2.94 6.28 -6 9 C-6.66 8.34 -7.32 7.68 -8 7 C-6.74057614 5.80040625 -5.46704714 4.61560557 -4.1875 3.4375 C-3.12595703 2.44556641 -3.12595703 2.44556641 -2.04296875 1.43359375 C-1.36878906 0.96050781 -0.69460938 0.48742187 0 0 Z " fill="#1F99AA" transform="translate(567,408)"/>
<path d="M0 0 C0.66 0.33 1.32 0.66 2 1 C1.50628906 1.48210937 1.01257813 1.96421875 0.50390625 2.4609375 C-0.45708984 3.40839844 -0.45708984 3.40839844 -1.4375 4.375 C-2.07558594 5.00148438 -2.71367187 5.62796875 -3.37109375 6.2734375 C-5.07882176 7.91723061 -5.07882176 7.91723061 -6 10 C-6.99 9.67 -7.98 9.34 -9 9 C-6.31941902 5.42589203 -3.57410797 2.68058098 0 0 Z " fill="#1D307A" transform="translate(366,287)"/>
<path d="M0 0 C2.64 0 5.28 0 8 0 C8 2.97 8 5.94 8 9 C7.67 9 7.34 9 7 9 C6.67 6.69 6.34 4.38 6 2 C5.38125 2.185625 4.7625 2.37125 4.125 2.5625 C2 3 2 3 0 2 C0 1.34 0 0.68 0 0 Z " fill="#F5904B" transform="translate(415,672)"/>
<path d="M0 0 C0.33 0.66 0.66 1.32 1 2 C-1.3500189 4.72107452 -3.55674975 5.96702492 -7 7 C-7.99 6.67 -8.98 6.34 -10 6 C-6.7 4.02 -3.4 2.04 0 0 Z " fill="#3F5BA3" transform="translate(526,496)"/>
<path d="M0 0 C0.33 0 0.66 0 1 0 C1 2.31 1 4.62 1 7 C1.66 7.33 2.32 7.66 3 8 C3 8.33 3 8.66 3 9 C3.66 9.33 4.32 9.66 5 10 C3.625 11.5 3.625 11.5 2 13 C1.34 13 0.68 13 0 13 C0 8.71 0 4.42 0 0 Z " fill="#214F98" transform="translate(364,445)"/>
<path d="M0 0 C2.5224581 2.62756052 2.99258956 3.9140389 3.3125 7.625 C3 11 3 11 1 13 C0.1276588 10.00519083 -0.10829766 7.36424089 -0.0625 4.25 C-0.05347656 3.45078125 -0.04445313 2.6515625 -0.03515625 1.828125 C-0.02355469 1.22484375 -0.01195312 0.6215625 0 0 Z " fill="#50CBCC" transform="translate(278,421)"/>
<path d="M0 0 C3.3 0 6.6 0 10 0 C10 0.33 10 0.66 10 1 C8.88625 1.226875 7.7725 1.45375 6.625 1.6875 C2.83961627 2.60623658 2.83961627 2.60623658 1.5625 5.625 C1.376875 6.40875 1.19125 7.1925 1 8 C0.67 8 0.34 8 0 8 C0 5.36 0 2.72 0 0 Z " fill="#38BBC9" transform="translate(289,370)"/>
<path d="M0 0 C0 4.38968456 -2.12805101 5.76905739 -5 9 C-5.99 8.67 -6.98 8.34 -8 8 C-5.58443874 4.80800833 -3.31996462 2.25283313 0 0 Z " fill="#F18F38" transform="translate(435,610)"/>
<path d="M0 0 C3.3 0 6.6 0 10 0 C8.68 0.33 7.36 0.66 6 1 C6 1.66 6 2.32 6 3 C6.66 3 7.32 3 8 3 C8 3.66 8 4.32 8 5 C4.35446828 3.7191375 2.83328987 2.83328987 0 0 Z " fill="#F7B32A" transform="translate(563,518)"/>
<path d="M0 0 C-0.33 1.65 -0.66 3.3 -1 5 C-2.98 5.33 -4.96 5.66 -7 6 C-3.61538462 0 -3.61538462 0 0 0 Z " fill="#344F99" transform="translate(533,493)"/>
<path d="M0 0 C-1.49097658 3.7952131 -3.75700849 5.61042731 -7 8 C-7 5 -7 5 -4.625 2.3125 C-2 0 -2 0 0 0 Z " fill="#F5A433" transform="translate(542,587)"/>
<path d="M0 0 C0.66 0.66 1.32 1.32 2 2 C0.02 3.98 -1.96 5.96 -4 8 C-4.99 7.67 -5.98 7.34 -7 7 C-4.69 4.69 -2.38 2.38 0 0 Z " fill="#219CA3" transform="translate(582,394)"/>
<path d="M0 0 C4.21912747 0.4794463 6.79663178 1.16625119 10 4 C8.02 4.99 8.02 4.99 6 6 C6 5.34 6 4.68 6 4 C5.195625 3.71125 4.39125 3.4225 3.5625 3.125 C1 2 1 2 0 0 Z " fill="#46D4B1" transform="translate(606,267)"/>
<path d="M0 0 C1 3 1 3 -0.25 5.5625 C-2 8 -2 8 -5 10 C-5 6.60406522 -4.47834052 5.93380119 -2.5 3.3125 C-2.0359375 2.68988281 -1.571875 2.06726563 -1.09375 1.42578125 C-0.7328125 0.95527344 -0.371875 0.48476563 0 0 Z " fill="#2F6EA9" transform="translate(665,565)"/>
<path d="M0 0 C0.99 0.33 1.98 0.66 3 1 C1.625 3 1.625 3 0 5 C-0.66 5 -1.32 5 -2 5 C-1.125 1.125 -1.125 1.125 0 0 Z M-3 5 C-1.68 5.66 -0.36 6.32 1 7 C-0.65 7 -2.3 7 -4 7 C-3.67 6.34 -3.34 5.68 -3 5 Z " fill="#1A2B76" transform="translate(342,309)"/>
<path d="M0 0 C0.66 0.33 1.32 0.66 2 1 C0.95125002 3.62187494 0.35068687 4.79371361 -2.125 6.25 C-2.74375 6.4975 -3.3625 6.745 -4 7 C-3.6875 4.625 -3.6875 4.625 -3 2 C-2.01 1.34 -1.02 0.68 0 0 Z " fill="#283D7E" transform="translate(375,308)"/>
<path d="M0 0 C0.66 0.33 1.32 0.66 2 1 C2 1.99 2 2.98 2 4 C0.35 4.66 -1.3 5.32 -3 6 C-3.33 5.34 -3.66 4.68 -4 4 C-2.68 2.68 -1.36 1.36 0 0 Z " fill="#2A78B7" transform="translate(634,639)"/>
<path d="M0 0 C0.66 0.33 1.32 0.66 2 1 C1.67 3.97 1.34 6.94 1 10 C-1.29404844 6.55892734 -1.26293056 5.03160191 -1 1 C-0.67 0.67 -0.34 0.34 0 0 Z " fill="#3ABBC1" transform="translate(281,418)"/>
<path d="M0 0 C0 0.66 0 1.32 0 2 C-1.96147874 3.38938077 -3.96166576 4.7260411 -6 6 C-6 4.35 -6 2.7 -6 1 C-4 0 -4 0 0 0 Z " fill="#2BCCBE" transform="translate(442,396)"/>
<path d="M0 0 C0.66 1.32 1.32 2.64 2 4 C0.625 5.5 0.625 5.5 -1 7 C-1.66 7 -2.32 7 -3 7 C-1.125 1.125 -1.125 1.125 0 0 Z " fill="#283D81" transform="translate(366,316)"/>
<path d="M0 0 C0.33 0.99 0.66 1.98 1 3 C0.67 3.66 0.34 4.32 0 5 C-1.65 5 -3.3 5 -5 5 C-5 4.34 -5 3.68 -5 3 C-2.5 1.375 -2.5 1.375 0 0 Z " fill="#369949" transform="translate(411,454)"/>
<path d="M0 0 C0.33 0.99 0.66 1.98 1 3 C1.99 3.33 2.98 3.66 4 4 C3.54625 4.433125 3.0925 4.86625 2.625 5.3125 C0.79975666 7.10798342 0.79975666 7.10798342 -1 10 C-0.67 6.7 -0.34 3.4 0 0 Z " fill="#4C75A7" transform="translate(700,478)"/>
<path d="M0 0 C2.05078125 0.03255208 4.1015625 0.06510417 6.15234375 0.09765625 C6.15234375 0.42765625 6.15234375 0.75765625 6.15234375 1.09765625 C5.05921875 1.36578125 3.96609375 1.63390625 2.83984375 1.91015625 C-0.46458288 2.97429364 -1.79726047 3.44420289 -3.84765625 6.09765625 C-2.77957394 0.14691194 -2.77957394 0.14691194 0 0 Z " fill="#1E3C85" transform="translate(295.84765625,383.90234375)"/>
<path d="M0 0 C1.32 0 2.64 0 4 0 C2.25 4.875 2.25 4.875 0 6 C-0.38218767 4.34385343 -0.71395102 2.67542976 -1 1 C-0.67 0.67 -0.34 0.34 0 0 Z " fill="#57C84B" transform="translate(592,313)"/>
</svg>
